<?xml version="1.0" encoding="UTF-8"?><svg id="a" xmlns="http://www.w3.org/2000/svg" viewBox="0 0 148.3 205"><defs><style>.b{fill:#fff;}</style></defs><path class="b" d="M102.6,114.7c2.4-1.1,6-6.4,6-6.4-4.8-.9-5.7-5.6-5.1-9.1,1,1.5,2.3,5.2,9.4,4.5,9.9-1,15.8-17.7,14.5-25.9-.6,10.3-9,16.1-11.5,13.8-1,.4-5.1,1.2-8.3-2.1,7.4,3.5,17.5-11.6,17.3-16.1-1.9,3.2-7.9,2.3-8.6-.7-4.1,0-5.6-2.2-6.4-6,1.8,2.4,6.9,2.2,10.2-2.4,3.2-4.6-4.7-13.6-7.7-21.7-2.7-7.1,1.9-14.1,3.2-15.9,0,0-.2,0-.3,0-.2-1,.5-1.4,.5-1.4-1-2.1-.7-4.1,1.2-4,1.6,0,3.5-1,6.6-3.8l-.9-.9c-.8,.6-1.5,1-2.3,1.3-1.8,.8-5.3,.7-6.4-1.4-1.1-2.1,.3-3.9,1.5-4.2,1.2-.3,2.6,.5,3.1,1.7,.4,1-.2,2.3-.9,2.9,0,0,2,.4,4.2-1.1l-.9-.9c-.2-.2,0-.6,.2-.9l.6-.6c.3-.3,.7-.4,.9-.2l1,1c2.5-2.9,3.4-6.5,1.9-8.6-1.5-2.1-3.4-.7-3.4-.7,.7,0,2,1,1.9,2.6-.1,1.6-2.4,3.1-4,2.2-1.6-.9-3.8-2.9-2.4-6,1.3-3,4.5-4.3,7.4-2.7,3.4,1.9,4.7,6.8,1.4,11.5-.7,1.1-1.4,1.9-2,2.6l.8,.8h.1c4.2-4.3,4.1-7.9,7.4-11.8,3.3-3.9,8.5-4.4,9-3.9s0,5.7-3.9,9c-3.9,3.3-7.5,3.2-11.7,7.4h0l.9,.9c.7-.6,1.5-1.3,2.6-2,4.7-3.3,9.6-2,11.6,1.4,1.6,2.9,.3,6-2.8,7.4-3.1,1.4-5.1-.8-6-2.4-.9-1.6,.7-3.9,2.2-4,1.6,0,2.7,1.2,2.6,1.9,0,0,1.4-1.9-.8-3.4-2.1-1.5-5.7-.6-8.6,1.9l1.3,1.3c.2,.2,0,.6-.2,.9l-.6,.6c-.3,.3-.7,.4-.9,.2l-1.2-1.2c-1.5,2.2-1.1,4.2-1.1,4.2,.6-.7,1.9-1.3,2.9-.9,1.2,.5,2,1.9,1.7,3.1-.3,1.2-2.1,2.6-4.2,1.5-2.1-1.1-2.2-4.6-1.4-6.4,.3-.7,.7-1.5,1.3-2.3l-.9-.9c-2.9,3.1-3.9,5-3.8,6.6,0,1.9-1.9,2.2-4,1.2,0,0-.3,.5-1,.5-4.5,10.1-1.2,16.3,8.1,30.1,9.4,14.1,9.8,31.3,1.9,43.6-2.4,3.7-1.6,6-1.6,6,8.9,7.1,8,12.7,8,12.7,0,0-4.8-2.3-7.9-2.9,4.2,3,6.5,14.2,5.5,14.2-8.4-2.3-10.3-10.3-10.3-10.3-9.9,30.1,1.1,36.2,5,36.1,4.9-.2,6.3,1.1,5.9,2.4-.4,1.3-2.6,2.6-4.8,2.6s5.3,5.7,7.5,8c1.8,1.8,3.3,3.7,2.6,4.4-4.6,1.4-8.3,0-10.9-1.7,.3,.7,.7,1.3,1.4,1.9,4.8,3.8,14.4,9.7,14.1,15.8-.1,2.8-.9,5-2,6.6,2,6.9,6.5,5.3,6.5,5.3-2.2-1.6,.3-4.8,2.4-3.5,2.1,1.3,1.9,7.5-4.8,7-4.2-.3-6-3.6-6.7-6-2.7,1.9-6.3,2.4-9.6,2.1-6.3-.6-9.8-7.4-8-13.3,1.8-5.9,9.2-5.2,9.2,.3-.3,3.3-3.2,3.3-3.2,3.3,0,0,1.3,3.7,4.7,2.8,3.4-.8,8.1-8.5-.4-13.3-4.8-2.7-7.8-5.4-9.5-7.7-4.1,4.1-12.1,1.4-12.2-2.7,6.3,3.2,9.8-4.2,4.6-16-5.2-11.8,5.7-43.1,5.7-43.1-5.2,7.1-16.7,4.4-14.3,3.3Z"/><path class="b" d="M141.5,79.5c5,4.6,.6,12.8,.6,12.8,0,0-.5-2.9-3.2-4.8-2.7-1.9-5.3-6-6.5-14.2-1.2-8.2-11.2-23-11.2-23,5.8,4.3,9.7,13.4,13.5,14.9,3.8,1.7,5,5,5.9,7.5-2.9,.2-6.2-2.9-6.2-2.9-.1,1.1,2.1,5.1,7.1,9.7Z"/><path class="b" d="M112.3,30.1c.1-.1,.1-.2,.1-.2q0,0-.1,.2Z"/><path class="b" d="M112.3,30.1c.1,0,.2-.1,.2-.1q0,.1-.2,.1Z"/><path class="b" d="M111.7,30.4c0,0-.3,.2-.4,.3,.3-.2,.4-.4,.5-.4h0Z"/><path class="b" d="M80.1,47.8c4.6,.9,10.5-1.5,15.7-4.5-3.4,2.9-10.2,8.9-12.1,10.3-2.2,1.7-4.3,4.5-1.9,6.9s5.3,.3,7-1.8c1.4-1.8,7.1-8.3,10.1-11.8-2.9,5.1-5.2,10.8-4.3,15.4,1.4,5.9,7.3,4.2,6.7-.5-.4-2.9-.5-11.3,3.2-20.6-1.3,3.4-1.9,7.4,.2,10.3,4.3,6.4,11,.8,9.5-3.2-1.5-4.1-7.3-2.8-5.8,.8,0,0-3.6-8,3.9-19-.4,.3-.9,.6-1.3,.8,0,0,.2-.1,.2-.2,0,0-.2,.1-.3,.2-10.4,6.5-17.7,3-17.7,3,3.6,1.6,4.9-4.3,.8-5.8-4.1-1.5-9.7,5.2-3.3,9.5,3.5,2.3,8.5,1,12.3-.7-10.1,4.6-19.6,4.5-22.5,4.1-4.8-.6-6.5,5.3-.5,6.7Zm25.1-12c-.1,0-.2,.1-.3,.2,0,0,.2,0,.3-.2Zm1.8-.6l.3-.3c-.2,.2-.4,.5-.7,.8l.4-.5Zm-.7,2.1c.4-1,4.9-5.9,5.6-6.8h0c-.4,.5-5,5.5-5.7,6.8Z"/><path class="b" d="M112,30.2h.1s0,0-.1,0Z"/><path class="b" d="M112,30.2c0,.1,0,.1,0,0h0Z"/><path class="b" d="M112,30.2c0,.1,0,0,0,0h0Z"/><path class="b" d="M12.3,8.8c4.2,3.5,6.7,9.5,9.2,9.9-1.8-2.5-.7-5.6,.7-8.1,0,2.8,4.9,7.8,9.5,7.4,.2,0,.4,0,.5,0,.6-.3,1.2-.6,1.9-.8-6.8-1.4-9.7-7.5-9-11.6,.7-4,3.6-4.5,5.5-3.7,1.8,.8,2.4,4.9-.2,4.4-2.6-.5-3.8,7.7,8,7.2,6.3-.3,9.6-3.7,18.4-5,13-1.8,21.9,6.5,21.9,6.5-.9-4.2,2-10.7,10.5-10.6s10.5,10.6,6.1,13.3c-1.5,.9-3.3,.7-4.2,0-1.6-1.4-1.6-3.1-.9-4.6,.4-.8,2.4-1.6,2.4-1.6,0,0-.2-2.5-3.4-2.8-6.1-.5-10,6.1-4.5,9.5,14.4,9,19.9,13.1,30.5,8.5,0,0-8.3,6.4-16.2,3.2-8.1-3.2-17-11.2-21.6-8-4.6,3.2-4.9,8.4-2.6,10.2-3.8-.9-6.1-2.4-5.9-6.5-3.1-.7-3.8-6.7-.6-8.6-4.5-.3-19.8,9.6-16.4,17-3.3-3.3-2.4-7.4-2-8.4-2.3-2.5,5.4-11.9,15.7-12.4-6.5-5.1-16.3,1.9-23.4,3.7-1.1,.3-2.2,.5-3.2,.6-3.7,1.8-6.9,3.6-6,5.5,1.4,2.8,.4,5.3-3.5,10.2,0-3.6-3-7.2-1.8-10.8-.2,.1-.3,.2-.3,.2,0,0-7.4,3.2-13,0-5.6-3.2-7.1-10.2-8.8-11.3-1.8-1.1-5.6-2.8-5.6-2.8,0,0,8.1-3.2,12.3,.4Z"/></svg>