<?xml version="1.0" encoding="UTF-8"?><svg id="a" xmlns="http://www.w3.org/2000/svg" viewBox="0 0 599.7 221.8"><defs><style>.b{fill:#fff;}</style></defs><g><path class="b" d="M80.9,7.5c1.3-.3,2.8-.4,4.5-.1,1.7,.3,3.2,.8,4.6,1.6,1.4,.8,2.6,2,3.6,3.4,1,1.4,1.5,3.1,1.6,5.1,0,1.5-.2,3-.8,4.6-.6,1.6-1.5,3-2.8,4.3-1.3,1.3-2.9,2.3-4.9,3.1-2,.8-4.3,1.2-7,1.2s-5.7-.5-8.1-1.6c-2.4-1.1-4.5-2.4-6.3-4.1-1.8-1.6-3.1-3.4-4.1-5.4-1-2-1.5-4-1.6-5.9,0-1.8,0-3.4,.5-4.9,.4-1.5,1-2.9,1.8-4.1,.8-1.2,1.7-2.2,2.7-3,1-.8,2-1.3,3-1.6,.9-.2,1.7-.2,2.3,0,.6,.1,1,.3,1.1,.4,.2,.2,.1,.4,0,.7-.2,.3-.5,.6-.9,.8-.4,.3-.9,.4-1.5,.6-.6,.1-1.1,0-1.6-.2-.6-.3-1.2,0-1.8,.7-.6,.7-1.2,1.7-1.8,2.9-.5,1.3-1,2.7-1.3,4.2-.3,1.5-.4,2.9-.4,4.2,.2,2.5,.8,4.6,1.8,6.4,1,1.8,2.4,3.2,3.9,4.4,1.6,1.2,3.3,2,5.2,2.6,1.9,.5,3.7,.8,5.6,.8s4.4-.3,6.2-1c1.8-.7,3.3-1.6,4.4-2.7,1.2-1.1,2-2.4,2.6-3.8,.6-1.4,.8-2.9,.8-4.5-.2-1.8-.8-3.3-1.8-4.6-1-1.3-2.4-1.9-4.3-1.9s-4.4,1-6.1,2.9c-1.8,2-3.3,4.5-4.8,7.7-1.4,3.2-2.7,6.8-3.8,10.9-1.1,4.1-2.2,8.2-3.3,12.5-1,4.2-2.1,8.4-3.1,12.5-1,4.1-2.2,7.7-3.4,10.9-1.3,3.2-2.6,5.7-4.1,7.6-1.5,1.9-3.3,2.8-5.3,2.8-2.3,0-3.9-.8-4.8-2.1-1-1.3-1.3-2.9-.9-4.9,.4-2.4,.8-5,1.1-7.8,.3-2.8,.5-5.5,.6-8.3,0-2.8,.1-5.4,0-8,0-2.6-.2-4.9-.4-7-.5,1.7-1.3,3.7-2.3,5.9-1,2.3-2.1,5-3.3,8.2-1.1,3-2.1,5.9-3.1,8.8-1,2.8-1.9,5.4-2.9,7.7-1,2.3-2,4.2-3.1,5.6-1.1,1.5-2.3,2.3-3.6,2.4-1.2,.2-2.4-.2-3.4-1.1-1-.9-1.5-2.2-1.5-3.8,0-.9,0-2.2,.2-3.8,.2-1.6,.5-3.3,.8-5,.3-1.7,.6-3.3,.9-4.8s.4-2.5,.5-3.1c0-.9,.3-2.8,.6-5.8,.3-2.9,.6-6.3,.7-10,.1-3.8,0-7.6-.1-11.6-.2-4-.8-7.5-1.7-10.6-1-3.1-2.4-5.4-4.4-7-2-1.6-4.6-1.8-7.8-.8-1.2,.3-2.4,1.1-3.8,2.3-1.4,1.2-2.7,2.7-3.9,4.4-1.2,1.8-2.3,3.8-3.1,6.1-.8,2.3-1.1,4.7-.9,7.3,.2,2.3,.9,4.1,2.2,5.2,1.3,1.1,2.8,1.7,4.4,1.7s3.7-.7,5.3-2.1c1.6-1.4,2.5-3.5,2.7-6.4,0-.4,0-.7-.3-.9-.2-.2-.3-.5-.4-.9,0-.2,0-.9,.2-1.8,.2-1,.5-1.4,1.1-1.4s.8,.4,1,1.3c.2,.8,.4,1.5,.5,2.1,0,2-.2,3.8-.8,5.4-.6,1.6-1.4,2.9-2.4,3.9-1,1-2.1,1.8-3.4,2.4-1.3,.5-2.5,.8-3.6,.8-2.3,0-4.3-.8-6.1-2.5C1.2,36.3,.2,33.8,0,30.6c-.2-2.9,.3-5.8,1.3-8.5,1-2.8,2.4-5.2,4.1-7.3,1.7-2.1,3.7-3.8,5.9-5.1,2.3-1.3,4.5-1.9,6.9-1.9s3.5,.2,5.6,.8c2,.5,4,1.5,5.8,2.9,1.8,1.4,3.4,3.4,4.8,6,1.3,2.6,2.1,5.9,2.3,10,0,1.4,0,3.2,0,5.4,0,2.2-.2,4.6-.4,7.3-.2,2.6-.4,5.4-.8,8.4-.4,3-.8,5.9-1.3,9-.2,1-.4,2.3-.8,3.9-.4,1.6-.7,3.1-1.1,4.6-.3,1.5-.6,2.8-.8,3.8-.2,1-.2,1.6,0,1.6,1.8-3.8,3.2-7.1,4.4-10.1,1.2-3,2.3-5.9,3.3-8.6,1-2.7,1.9-5.4,2.8-8,.8-2.6,1.8-5.5,2.8-8.6,.8-2.2,1.4-3.6,1.9-4.2s1.5-.9,3-.9c2.3,0,4,1.1,4.9,3.4,1,2.3,1.5,5.2,1.7,8.9,0,2.9,0,6.1-.3,9.5-.3,3.4-.6,6.6-.9,9.6s-.8,5.7-1.1,8c-.4,2.3-.6,3.8-.8,4.6,.9-.2,1.8-1,2.8-2.6,.9-1.5,1.9-4.4,3-8.5,.7-2.5,1.2-5.1,1.6-7.7s.8-5.4,1.1-8.3c.4-2.9,.9-5.9,1.4-9.1,.6-3.2,1.4-6.7,2.4-10.5,1.8-6.3,4-11,6.4-14.3,2.5-3.3,5.5-5.4,9.1-6.3Z"/><g><path class="b" d="M147.4,24.4c0,.6,.1,1.2,0,1.8,0,.6-.1,1.2-.3,1.8-.1,.6-.2,1-.3,1.4-.2,.9-.1,1.6,.2,2.2,.3,.5,.7,.9,1.2,1.2s1,.4,1.6,.3c.5,0,.9-.2,1.2-.4s.7-.9,1.1-1.7c.4-.8,.8-1.6,1.1-2.5,.3-.9,.6-1.7,.8-2.6,.2-.8,.3-1.5,.3-2,0-1-.4-1.6-1.3-1.9-.8-.3-1.8-.4-2.8-.3-1,0-1.9,.3-2.6,.6-.8,.3-1.1,.6-1,.9,.3,.3,.5,.7,.6,1.3Z"/><path class="b" d="M209.6,39.5c-.5-.1-1-.2-1.4-.2s-.2,0-.2,.2c0,.1,0,.3,0,.4-.8,1.8-1.7,3.7-2.6,5.5-.9,1.8-1.7,3.5-2.5,4.9-.8,1.4-1.5,2.6-2.2,3.4-.7,.9-1.2,1.3-1.6,1.3-.8,0-1.1-.5-.8-1.3,0-.7,.1-1.6,.4-2.9,.3-1.3,.6-2.6,.9-3.9,.3-1.3,.5-2.5,.6-3.6,0-1.1,0-1.8-.5-2-.8-.4-1.5-.6-2.3-.7-.8,0-1.5,0-2.1,.1-.6,.1-1.1,.3-1.6,.6-.4,.3-.6,.4-.6,.5s0,.2,.2,.3c.1,0,0,.3-.2,.8,0,.7-.3,1.6-.6,2.8-.3,1.2-.8,2.4-1.3,3.8v-.4c-.5,1.2-1.1,2.3-1.7,3.5-.6,1.2-1.2,2.2-1.8,3.1-.5,.9-1,1.7-1.5,2.3-.5,.6-.8,.9-1.1,.9-.9,0-1.5-.9-1.7-2.9-.2-2-.1-4.3,.3-6.9,.4-2.6,1.1-5.1,2.2-7.4,1-2.4,2.4-3.9,3.9-4.4,1.8-.7,3.2-.8,4.3-.4,1.1,.4,2.1,.8,3.1,1.2,.6,.3,.9,.1,.9-.3s-.8-1.1-2.3-2.1c-.7-.4-1.6-.7-2.9-.9-1.3-.2-2.6-.1-3.9,0-1.4,.2-2.8,.7-4.1,1.4-1.4,.7-2.5,1.8-3.3,3.2-.8,1.4-1.6,3-2.2,4.7-.6,1.7-1.1,3.4-1.5,5.2-.4,1.8-.6,3.4-.7,5,0,.2,0,.5,0,.7-.6,.9-1.2,1.7-1.9,2.5-1.2,1.3-2.3,2-3.3,1.9-.4,0-.6-.5-.5-1.4,0-.9,.3-2.1,.6-3.5,.3-1.4,.8-3,1.3-4.6,.5-1.7,1-3.3,1.5-4.8,.5-1.5,.9-2.9,1.3-4.1,.3-1.2,.5-2,.4-2.4-.2-1.7-.9-2.7-2.1-3.2-1.3-.5-2.5-.4-3.6,.2-.7,.3-1.4,1-2.2,2-.8,1-1.6,2.1-2.4,3.2-.8,1.1-1.5,2.2-2.1,3.1-.4,.7-.7,1.2-.9,1.5h0c0-.3,.2-.4,.3-.7,0-.2,.1-.4,.1-.6,.5-1.5,.8-2.9,.8-4.2,0-1.3,0-2.1,0-2.4,.2-1-.1-1.7-.9-2.2-.8-.5-1.7-.7-2.6-.6-1,0-1.8,.3-2.6,.8-.8,.5-1.1,1-.9,1.7,0,.5,0,1.4-.2,2.7-.2,1.3-.5,2.7-.8,4.2-.3,1.5-.7,3-1.1,4.4-.4,1.4-.7,2.6-.9,3.5-.1,.3-.3,.6-.4,.9-.9,2-1.9,3.6-3,4.9-1.1,1.3-2.1,2-3.1,1.9-.4,0-.6-.6-.4-1.8,.1-1.2,.4-2.6,.8-4.4s.8-3.6,1.3-5.6c.5-2,1-3.7,1.4-5.3,.3-1.3,.6-2.4,.9-3.4,.3-1,.4-1.7,.4-1.9,.2-1-.2-1.6-1-1.9-.8-.3-1.8-.3-2.8-.2-1,.1-1.9,.4-2.6,.7-.8,.3-1,.6-.8,.8,.2,0,0,1.1-.2,3.1-.2,1.4-.5,3-.8,4.6-.3,.7-.5,1.5-.8,2.3-.8,2.1-1.5,4.1-2.3,5.9-.8,1.8-1.4,3.4-2.1,4.6-.6,1.2-1.1,1.8-1.6,1.8s-.6-.5-.8-1.4c0-.8,0-2.1,.4-4.1,.4-2,.9-4.2,1.4-6.8,.6-2.6,1.2-5.4,1.9-8.3,.7-3,1.3-5.8,1.9-8.6,.6-2.8,1.2-5.3,1.6-7.7,.5-2.3,.7-4.2,.7-5.5,.2-1.5-.7-2.3-2.5-2.3s-2.2,.2-3.4,.7c-1.2,.5-1.8,.8-1.7,1.1,0,0,0,.3,.3,.6,.2,.3,.3,.6,.3,.8-.2,1.2-.4,2.6-.7,4.3-.3,1.7-.6,3.5-1,5.4-.4,1.9-.8,3.9-1.3,5.8-.5,2-.9,3.8-1.4,5.4-.4-.8-1-1.5-1.7-2.3-.7-.8-1.7-1.1-3.1-1.1-2,0-3.8,.6-5.4,1.9-1.6,1.3-2.9,2.9-4,4.9-1.1,2-1.9,4.2-2.5,6.6-.4,1.4-.6,2.8-.7,4.1,0,0,0,0,0,0-.8,1.8-1.4,3.4-2.1,4.6-.6,1.2-1.1,1.8-1.6,1.8s-.6-.5-.8-1.4c0-.8,0-2.1,.4-4.1,.4-2,.9-4.2,1.4-6.8,.6-2.6,1.2-5.4,1.9-8.3,.7-3,1.3-5.8,1.9-8.6,.6-2.8,1.2-5.3,1.6-7.7,.5-2.3,.7-4.2,.7-5.5,.2-1.5-.7-2.3-2.5-2.3s-2.2,.2-3.4,.7c-1.2,.5-1.8,.8-1.7,1.1,0,0,0,.3,.3,.6,.2,.3,.3,.6,.3,.8-.2,1.2-.4,2.6-.7,4.3-.3,1.7-.6,3.5-1,5.4-.4,1.9-.8,3.9-1.3,5.8-.5,2-.9,3.8-1.4,5.4-.4-.8-1-1.5-1.7-2.3-.7-.8-1.7-1.1-3.1-1.1-2,0-3.8,.6-5.4,1.9-1.6,1.3-2.9,2.9-4,4.9-1.1,2-1.9,4.2-2.5,6.6-.5,1.8-.7,3.6-.8,5.3,0,0,0,.1-.1,.2-.8,1.2-1.8,2.4-3.1,3.6-.8,.8-1.8,1.4-2.9,1.8-1.1,.4-2.2,.5-3.3,.4-1.1,0-2-.4-2.8-1.1-.8-.6-1.2-1.6-1.3-2.8-.2-2.1,0-4.2,.7-6.3,.6-2.1,1.4-4,2.4-5.6,1-1.7,2-3.1,3.1-4.3,1.1-1.2,2.1-1.9,2.9-2.3,1-.3,1.7,.1,2.1,1.3,.4,1.2,.3,2.6-.1,4.3-.5,1.6-1.3,3.2-2.6,4.7-1.3,1.5-3.1,2.4-5.3,2.6-.2,0-.3,.1-.4,.4,0,.2-.1,.5-.1,.8s.1,.5,.4,.7c.3,.2,.6,.3,1.1,.2,1.8-.3,3.4-1.3,4.9-2.8s2.7-3.2,3.5-5c.8-1.8,1.2-3.6,1-5.3-.2-1.7-1.1-2.9-2.8-3.7-1.3-.6-2.6-.8-3.9-.7-1.3,.1-2.4,.5-3.6,1.1-1.1,.6-2.2,1.3-3.2,2.2-1,.9-1.9,1.8-2.6,2.7-1.3,1.7-2.3,3.6-3.1,5.8-.8,2.2-1.2,4.4-1.3,6.4,0,2.1,.4,4,1.3,5.6,.9,1.7,2.5,2.8,4.6,3.4,2.8,.8,5.2,.8,7.1,.2,1.9-.6,3.5-1.4,4.6-2.4,1-.8,1.8-1.7,2.7-2.7,.2,1.4,.7,2.5,1.3,3.2,1,1.1,2.4,1.7,4.1,1.7s3.5-.6,4.9-1.9c1.3-1.3,2.4-2.7,3.1-4.2,.4,1.2,.9,2.4,1.4,3.7,.5,1.3,1.6,2.1,3.1,2.4,2,.4,3.7,0,5.1-1.4,.9-.8,1.6-1.8,2.3-3,.2,1.1,.7,2,1.2,2.7,1,1.1,2.4,1.7,4.1,1.7s3.5-.6,4.9-1.9c1.3-1.3,2.4-2.7,3.1-4.2,.4,1.2,.9,2.4,1.4,3.7,.5,1.3,1.6,2.1,3.1,2.4,2,.4,3.7,0,5.1-1.4,1.1-1.1,2.1-2.5,3-4.1,0,1.3,.3,2.4,.7,3.2,.5,.9,1.1,1.5,1.9,1.8,.8,.3,1.5,.5,2.3,.4,.8,0,1.4-.1,1.9-.2,1.6-.3,3-1.5,4.4-3.6,.3-.5,.6-1,.9-1.5,0,1.6,.3,2.8,1,3.8,.3,.6,.8,1,1.5,1.2,.7,.2,1.3,.3,1.8,.2,.5,0,.8-.3,1-.6,.2-.3,0-.6-.6-1.1,0,0-.1-.3-.1-.6,.3-1.6,1-3.6,2.1-6.1,1.2-2.5,2.5-4.9,3.9-7.3,1.5-2.4,2.8-4.4,4.1-6.2,1.3-1.8,2-2.7,2.4-2.8-.9,2.6-1.8,5.1-2.5,7.4-.7,2-1.3,4-1.8,6.1-.5,2-.8,3.7-.8,4.8s.3,2.6,.8,3.5c.5,.9,1.1,1.6,1.8,2.1,.7,.5,1.4,.8,2.1,.9,.8,.1,1.4,.1,1.9,0,1.1-.3,2.2-.9,3.3-1.9,.6-.6,1.2-1.3,1.8-2,0,.1,0,.2,0,.3,.3,1.3,.8,2.2,1.6,2.8,.8,.6,1.8,.9,2.8,1,1,0,2.1-.1,3.1-.6,1-.5,1.9-1.1,2.6-2.1l2.8-3.5c-.6,2.8-1.1,5.6-1.6,8.4-.5,2.8-.9,5.4-1.4,7.8-.5,2.3-1,4.3-1.5,5.8-.5,1.5-1.1,2.3-1.8,2.4-1.2,.2-2.2-.4-3.1-1.6s-1.4-3.1-1.7-5.5c-.2-1.8,0-3.2,.3-4.4,.3-1.2,.7-2.2,1.2-2.9,.5-.8,.9-1.3,1.3-1.6,.4-.3,.7-.5,.9-.5,.3-.2,.7-.2,1-.1,.6,.2,1,.9,1.4,2.1,.2,.8,.2,1.7,0,2.6,0,.5,.2,.8,.4,.8,.4,0,.7-.4,.9-1.2,.2-.8,.2-1.5,0-2.1-.3-1.2-.6-2-.9-2.6-.4-.5-.8-.9-1.2-1-.4-.1-.8-.1-1.1,0-.3,0-.5,.1-.6,.1-.4,0-1,.2-1.6,.7-.7,.5-1.3,1.1-1.9,2.1-.6,.9-1,2.1-1.4,3.5-.3,1.4-.4,3-.3,4.9,0,1.3,.2,2.5,.7,3.7,.5,1.2,1,2.3,1.8,3.2,.7,.9,1.5,1.6,2.5,2.2,1,.5,1.9,.8,2.9,.7,1.8-.2,3.4-1.3,4.6-3.4,1.3-2.1,2.3-4.5,3.1-7.2,.8-2.7,1.5-5.4,2.1-8.2,.5-2.8,1-4.9,1.4-6.4,1.3,.2,2.6-.3,3.8-1.3,1.2-1,2.3-2.3,3.3-3.9,1-1.6,2-3.4,2.9-5.4,1-2,1.9-4,2.8-6,.5-1.2,.5-1.8,0-1.9Zm-103,5.7c-.3,1.2-.5,2.3-.9,3.5-.3,1.1-.8,2.2-1.5,3.4-.7,1.2-1.4,2.3-2.1,3.3-.8,1-1.5,1.8-2.2,2.5-.7,.7-1.2,1-1.4,1h-.8c-.3,0-.5,0-.6-.3-.2-.2-.3-.5-.3-1.1,0-.5,0-1.4,0-2.6,0-1.3,.3-2.9,.6-5,.3-2.1,.8-4.1,1.4-6.1,.6-2,1.4-3.7,2.4-5.1,1-1.4,2.1-2.1,3.6-2,.7,0,1.2,.5,1.7,1.6,.5,1.1,.8,2.1,.9,3.1-.3,1.2-.6,2.3-.9,3.5Zm25.3,0c-.3,1.2-.5,2.3-.9,3.5-.3,1.1-.8,2.2-1.5,3.4-.7,1.2-1.4,2.3-2.1,3.3-.8,1-1.5,1.8-2.2,2.5-.7,.7-1.2,1-1.4,1h-.8c-.3,0-.5,0-.6-.3-.2-.2-.3-.5-.3-1.1,0-.5,0-1.4,0-2.6,0-1.3,.3-2.9,.6-5,.3-2.1,.8-4.1,1.4-6.1,.6-2,1.4-3.7,2.4-5.1,1-1.4,2.1-2.1,3.6-2,.7,0,1.2,.5,1.7,1.6,.5,1.1,.8,2.1,.9,3.1-.3,1.2-.6,2.3-.9,3.5Z"/></g></g><g><path class="b" d="M248.2,52.2c-.5,0-.8,0-1-.3-.5,2.3-1,4.6-1.4,7.1-.4,2.5-.7,4.8-.9,7-.2,2.2-.2,4,0,5.5,.2,1.5,.5,2.4,1.1,2.6,1.2,.6,1.8,1.2,1.9,1.9,0,.7-.2,1.2-.9,1.5-.7,.3-1.7,.3-3.1,0-1.3-.3-2.8-1.2-4.5-2.6-1.5-1.3-2.4-3.1-2.7-5.6-.3-2.5-.3-5.4,.1-8.7,.4-3.3,1-6.8,1.9-10.5,.9-3.7,1.8-7.4,2.7-11.1,.9-3.7,1.8-7.3,2.5-10.6,.8-3.4,1.2-6.3,1.3-8.8-2,1.9-3.8,4-5.3,6.1-1.5,2.2-2.8,4.3-3.6,6.5-.9,2.2-1.4,4.2-1.6,6.2-.2,2,0,3.7,.8,5.2,0,0,0,.1,.2,.2,.2,0,.3,.1,.3,.2,.4,0,.8,.3,1.1,.8,.3,.4,.5,.9,.8,1.6,.2,.6,.2,1.1-.1,1.3-.3,.2-.8,0-1.4-.3-.6-.3-1.1-.7-1.3-1.1-.3-.3-.4-.7-.4-1.1v-1.4c-1-1.5-1.3-3.5-1.1-5.9,.2-2.5,.8-5.1,1.9-7.8,1.1-2.8,2.6-5.5,4.5-8.2,1.9-2.7,4.3-5.1,7-7.1,3.2-2.3,6.9-4.2,11.1-5.7,4.2-1.5,9-2.1,14.3-1.8,2.6,.2,4.8,.9,6.7,2.3,1.9,1.3,3.3,3.1,4.3,5.2,1,2.1,1.4,4.5,1.3,7.2,0,2.7-.7,5.4-1.9,8.3-1.2,2.9-3,5.7-5.4,8.5-2.4,2.8-5.6,5.3-9.4,7.6-1.4,.8-2.8,1.6-4,2.3-1.3,.7-2.5,1.3-3.6,1.8,1.8,1.4,3.4,3,4.9,4.8,1.5,1.8,3,3.7,4.4,5.6,1.5,2,2.9,3.9,4.4,5.8,1.5,1.9,2.9,3.6,4.4,5.1,2.2,2.2,4.3,4.1,6.3,5.8,2,1.7,4,2.9,5.8,3.8,1.8,.9,3.5,1.3,5.1,1.3s2.9-.6,4.1-1.9c.5-.5,.9-1.1,1.3-1.9,.3-.8,.6-1.6,.9-2.3,.2-.8,.5-1.3,.8-1.8,.3-.4,.5-.5,.8-.3,.6,.6,.6,1.9,.1,3.9-.5,2-1.5,3.9-3.1,5.4-1.3,1.4-2.9,2.4-4.8,3-1.8,.6-3.8,.7-5.9,.3-2.1-.4-4.4-1.4-6.8-2.9s-4.8-3.7-7.3-6.5c-2.3-2.8-4.3-5.4-6-7.8-1.7-2.5-3.2-4.8-4.5-6.9-1.3-2.2-2.6-4.2-3.8-5.9-1.2-1.8-2.5-3.4-3.9-4.7-.3-.3-.6-.5-.8-.6-3,.8-5.8,1-8.3,.6Zm-.8-1.5c.7-.5,1.3-.7,2-.6l4.1-.6c-.3-.2-.6-.4-.9-.6-.3-.2-.6-.4-.8-.4-1.3-.6-2.5-.7-3.8-.2l-.6,2.5Zm13.1-39.7c-1.8,.4-3.6,1-5.2,1.8-1.6,.8-3.2,1.6-4.7,2.5,1.3,.8,2.3,2,3.1,3.7,.8,1.7,1,3.9,.4,6.6-.4,1.7-1,4-1.6,7.1-.7,3-1.8,7-3.4,11.8l-.4,1.1,4.1,.9c.8,.2,1.6,.4,2.4,.8,.8,.4,1.6,.8,2.3,1.2,3-1.2,6.1-3.3,9.1-6.3,3.8-3.8,6.5-7.7,8-11.9,1.5-4.2,1.8-8.2,.9-12.1-.3-1.1-.7-2.2-1.4-3.3-.7-1.1-1.6-2.1-2.8-2.8-1.2-.8-2.7-1.3-4.5-1.5-1.8-.3-4,0-6.5,.5Z"/><g><path class="b" d="M289.7,50.2c2.3-.3,4-1.1,5.3-2.6,1.3-1.5,2.2-3.1,2.6-4.7,.5-1.6,.5-3,.1-4.3-.4-1.2-1.1-1.6-2.1-1.3-.8,.3-1.8,1.1-2.9,2.3-1.1,1.2-2.2,2.6-3.1,4.3-1,1.7-1.8,3.5-2.4,5.6-.6,2.1-.9,4.2-.7,6.3,0,1.3,.5,2.2,1.3,2.8,.8,.6,1.7,1,2.8,1.1,1.1,0,2.2,0,3.3-.4,1.1-.4,2.1-1,2.9-1.8,1.3-1.3,2.3-2.5,3.1-3.6,.8-1.2,1.5-2.4,2.2-3.7,.7-1.3,1.3-2.6,2-4.1,.7-1.4,1.5-3,2.4-4.6,.5-.7,1-.9,1.5-.8,.5,.1,.5,.7-.1,1.8-.3,.5-.6,1.4-1.1,2.8-.5,1.4-1.2,2.9-2,4.7-.8,1.8-1.9,3.5-3.1,5.3-1.2,1.8-2.6,3.4-4.2,4.7-1.2,1-2.7,1.8-4.6,2.4-1.9,.6-4.3,.5-7.1-.2-2.2-.6-3.7-1.7-4.6-3.4-.9-1.7-1.4-3.5-1.3-5.6,0-2.1,.5-4.2,1.3-6.4,.8-2.2,1.8-4.2,3.1-5.8,.8-.9,1.6-1.8,2.6-2.7,1-.9,2.1-1.6,3.2-2.2,1.1-.6,2.3-.9,3.6-1.1,1.3-.1,2.5,.1,3.9,.7,1.7,.8,2.6,2,2.8,3.7,.2,1.7-.2,3.5-1,5.3-.8,1.8-2,3.5-3.5,5s-3.1,2.4-4.9,2.8c-.5,0-.9,0-1.1-.2-.3-.2-.4-.4-.4-.7s0-.5,.1-.8c0-.3,.2-.4,.4-.4Z"/><path class="b" d="M326.4,41.2c.3-.7,.8-1,1.3-.9,.5,0,.7,.7,.4,1.8-.2,1.1-.6,2.4-1.2,3.9-.5,1.5-1.2,3.1-2,4.7-.8,1.6-1.7,3.2-2.7,4.8-1,1.5-2.1,2.9-3.4,4.1-.9,.8-2,1.5-3.4,2.1s-2.7,.9-4.1,1c-1.4,0-2.7-.1-3.9-.6-1.3-.5-2.3-1.3-3.1-2.6-.8-1.1-1.3-2.4-1.7-3.9-.4-1.5-.4-3.3,0-5.5,.2-1.7,.7-3.4,1.4-5.3,.7-1.9,1.5-3.6,2.6-5.3,1.1-1.6,2.4-3,4-4.1,1.6-1.1,3.5-1.7,5.6-1.9,1.7,0,3.1,.3,4.3,1.1,1.2,.8,1.6,2.1,1.2,4.1-.2,.5-.4,.8-.7,1-.3,.2-.5,0-.6-.8,0-.5-.1-1-.2-1.4,0-.5-.2-.8-.4-1.1-.2-.3-.5-.4-.9-.4s-.9,.2-1.7,.5c-1.8,.8-3.3,2.3-4.4,4.4-1.1,2.1-2.1,4.9-2.8,8.5-.4,2-.5,3.8-.4,5.4,.2,1.6,.6,2.9,1.2,3.8,.6,.9,1.5,1.3,2.6,1.3,1.1,0,2.4-.7,3.9-1.9,1.3-1,2.4-2.3,3.3-3.9,1-1.6,1.8-3.2,2.6-4.8,.8-1.6,1.4-3.2,1.9-4.6,.5-1.5,.9-2.6,1.1-3.4Z"/><path class="b" d="M330.7,50.2c2.3-.3,4-1.1,5.3-2.6,1.3-1.5,2.2-3.1,2.6-4.7,.5-1.6,.5-3,.1-4.3-.4-1.2-1.1-1.6-2.1-1.3-.8,.3-1.8,1.1-2.9,2.3-1.1,1.2-2.2,2.6-3.1,4.3-1,1.7-1.8,3.5-2.4,5.6-.6,2.1-.9,4.2-.7,6.3,0,1.3,.5,2.2,1.3,2.8s1.7,1,2.8,1.1c1.1,0,2.2,0,3.3-.4s2.1-1,2.9-1.8c1.3-1.3,2.3-2.5,3.1-3.6,.8-1.2,1.5-2.4,2.2-3.7,.7-1.3,1.3-2.6,2-4.1,.7-1.4,1.5-3,2.4-4.6,.5-.7,1-.9,1.5-.8,.5,.1,.5,.7-.1,1.8-.3,.5-.6,1.4-1.1,2.8-.5,1.4-1.2,2.9-2,4.7-.8,1.8-1.9,3.5-3.1,5.3-1.2,1.8-2.6,3.4-4.2,4.7-1.2,1-2.7,1.8-4.6,2.4-1.9,.6-4.3,.5-7.1-.2-2.2-.6-3.7-1.7-4.6-3.4-.9-1.7-1.4-3.5-1.3-5.6,0-2.1,.5-4.2,1.3-6.4,.8-2.2,1.8-4.2,3.1-5.8,.8-.9,1.6-1.8,2.6-2.7,1-.9,2.1-1.6,3.2-2.2,1.1-.6,2.3-.9,3.6-1.1,1.3-.1,2.5,.1,3.9,.7,1.7,.8,2.6,2,2.8,3.7,.2,1.7-.2,3.5-1,5.3-.8,1.8-2,3.5-3.5,5-1.5,1.5-3.1,2.4-4.9,2.8-.5,0-.9,0-1.1-.2-.2-.2-.4-.4-.4-.7s0-.5,.1-.8c0-.3,.2-.4,.4-.4Z"/><path class="b" d="M344.7,36.3c-.5-.4-.4-.8,.2-1,.7-.3,1.5-.4,2.6-.4s2.1,.1,3.1,.4c1,.3,1.5,.8,1.7,1.4,0,0-.2,.8-.5,2.3-.2,1.4-.7,3.1-1.3,5.1,1.4-2.8,3.1-5.1,5-6.9,1.9-1.8,3.7-2.6,5.3-2.6s1.8,.3,2.8,.9c.9,.6,1.4,1.6,1.4,2.9s-.3,2-.9,3.8c-.6,1.8-1.2,3.7-1.9,5.7-.7,2-1.2,4-1.7,5.9-.5,1.9-.6,3.3-.4,4.3,.2,.8,.4,1.3,.8,1.3,1,0,2.1-.7,3.3-2.2,1.2-1.5,2.3-3.2,3.3-5.3,1-2.1,2-4.3,2.8-6.7,.8-2.4,1.5-4.4,1.9-6.2,.2-.4,.4-.6,.8-.6,.7,0,1,.5,1,1.4s-.1,.7-.4,1.9c-.3,1.2-.7,2.6-1.3,4.3-.5,1.7-1.2,3.5-2,5.4-.8,1.9-1.7,3.7-2.8,5.3-1,1.6-2.2,2.9-3.5,3.9-1.3,1-2.7,1.4-4.2,1.3-1.8-.2-3-.7-3.9-1.5-.8-.8-1.3-2.6-1.3-5.3s.2-3,.6-5.1c.4-2,.9-4,1.5-5.9,.6-1.9,1.4-4.3,2.4-7-.8,0-1.8,.8-3.3,2.3-1.4,1.5-2.7,3.7-3.9,6.3-.5,1.3-.9,2.6-1.3,4-.4,1.4-.7,2.8-1,4.1-.3,1.3-.5,2.5-.8,3.5-.2,1-.4,1.7-.4,2.1-.5,2.2-1,4.6-1.5,7.2-.5,2.6-1.2,5.2-2.1,7.6-.9,2.4-2,4.5-3.5,6.2-1.5,1.7-3.4,2.7-5.9,2.9-1.5,.2-2.8,0-4-.6-1.2-.5-2.1-1.3-2.9-2.2-.8-.9-1.3-2-1.7-3.1-.4-1.2-.6-2.3-.6-3.5-.2-2.1,0-3.8,.5-5.3,.5-1.4,1.1-2.6,1.8-3.5,.7-.9,1.5-1.6,2.3-2,.8-.4,1.5-.6,2.1-.6,.9,0,1.8,.3,2.5,1.1,.8,.8,1.1,1.9,1.1,3.3,.2,.5,.1,1.2-.1,2.1-.2,.9-.7,1.4-1.3,1.4s-.3-.2-.3-.6c0-.4,.2-.9,.4-1.4,.2-.5,.2-1,0-1.4,0-2.2-.6-3.2-1.9-3.1-.3,0-.8,.2-1.4,.5-.6,.3-1.2,.9-1.8,1.6-.5,.8-1,1.8-1.4,3-.4,1.3-.5,2.8-.4,4.6,0,2.3,.6,4,1.7,5.1,1,1.2,2,1.8,2.9,1.8,1.4,0,2.7-1.1,3.8-3,1.1-1.9,2-4.3,2.8-7.2,.8-2.9,1.5-5.9,2-9.2,.5-3.3,1-6.3,1.4-9,.7-4.7,1.2-8.4,1.6-11.2,.4-2.8,.4-4.4,0-4.7Z"/><path class="b" d="M382.4,40.1c0-.2,0-.4,.3-.6,.2-.1,.5-.2,.8-.2,.5,0,.8,.3,.9,.9,0,.3-.3,1.1-.6,2.3-.3,1.2-.7,2.6-1.3,4.3-.6,1.6-1.3,3.4-2.1,5.2-.8,1.8-1.7,3.5-2.7,5-1,1.5-2.1,2.8-3.3,3.8-1.2,1-2.4,1.5-3.6,1.5s-3-.6-3.9-1.9c-.9-1.3-1.2-3-.8-5.3,.3-1.8,.8-4,1.3-6.7,.5-2.7,1-5.5,1.6-8.3,.6-2.8,1.1-5.5,1.6-8,.5-2.5,.8-4.6,1.1-6.1-.8,0-2,0-3.4,0-1.5,0-2.9,.1-4.3,.2-1.4,0-2.7,0-3.9,0s-1.8-.1-2-.4c-.3-.2-.3-.4,0-.6,.2-.3,.5-.4,.6-.4,1.2,0,2.4,.1,3.8,0,1.3,0,2.6-.1,3.9-.2,1.3,0,2.4-.2,3.4-.3,1-.1,1.9-.2,2.4-.2,0-.6,.2-1.3,.4-2.2,.2-.9,.3-1.7,.5-2.5,.2-.8,.3-1.5,.3-2.1,0-.6,0-.9-.2-.9-1.2-.3-2.2-.2-3.1,.4-.9,.6-1.6,1.6-1.9,2.8-.4,1.3-.4,2.7-.1,4.4,.3,1.7,1.1,3.3,2.4,4.9,.2,.3,.6,.6,1.3,1,.7,.4,1.1,.7,1.3,.9,.3,.3,.6,.6,.7,.9,.1,.4,0,.4-.6,0-1-.5-1.7-.9-2.1-1.1-.4-.2-.7-.5-.9-.9-2.3-2.3-3.7-4.5-4.1-6.4-.4-2-.2-3.6,.6-5,.8-1.4,2-2.5,3.5-3.3,1.5-.8,3.1-1.2,4.6-1.2s2.8,.4,3.9,1.2c1.1,.8,1.5,2.1,1.4,3.9,.2,.7,.2,1.4,0,2.3-.2,.8-.4,1.7-.6,2.6,.4,0,1.4,0,2.8-.2,1.5-.1,3.1-.2,5-.1,1.9,0,3.8,.1,5.8,.3,2,.2,3.8,.5,5.4,1.1,1.6,.6,2.9,1.4,3.8,2.4s1.1,2.3,.8,4c-.2,.5-.6,1-1,1.6-.4,.5-.8,.9-1.1,1.1-.3,.2-.5,0-.6-.3,0-.4,.1-1.3,.6-2.7,.7-1.7,.2-2.9-1.5-3.8-1.7-.8-3.8-1.4-6.3-1.7-2.5-.3-5.1-.4-7.8-.3-2.7,.1-4.7,.3-6.1,.6-.5,2.3-1.1,5.1-1.9,8.3-.8,3.2-1.6,6.4-2.4,9.6-.8,3.2-1.5,6.2-2.1,8.9-.6,2.7-.9,4.7-.9,6.1-.2,.3-.2,.5-.1,.5h.6c.8,0,1.6-.7,2.5-2.1,.9-1.4,1.9-3,2.8-5,1-2,1.9-4.1,2.7-6.3,.8-2.3,1.5-4.3,2.1-6Z"/><path class="b" d="M378.4,56c0-.2,.2-1.3,.6-3.3,.4-2,.9-4.2,1.3-6.6,.5-2.4,.9-4.5,1.2-6.5,.3-2,.4-3,.3-3.1-.3-.2,0-.4,.8-.8,.8-.3,1.6-.6,2.6-.7,1-.1,1.9,0,2.8,.2,.8,.2,1.2,.9,1,1.9,0,.3-.1,.9-.4,1.9-.2,1-.5,2.2-.9,3.4-.4,1.6-.9,3.4-1.4,5.3-.5,2-.9,3.8-1.3,5.6s-.6,3.2-.8,4.4c-.1,1.2,0,1.8,.4,1.8,1,0,2-.5,3.1-1.9,1.1-1.3,2.1-3,3-4.9,.9-2,1.8-4,2.6-6.3,.8-2.2,1.4-4.2,1.9-5.9,.3-.6,.6-.8,1.1-.7,.5,.1,.6,.6,.4,1.6-.2,.4-.6,1.6-1.2,3.7-.6,2-1.4,4.2-2.4,6.6-1,2.3-2.2,4.5-3.5,6.6-1.3,2-2.8,3.2-4.4,3.6-.5,0-1.1,.1-1.9,.2-.8,0-1.6-.1-2.3-.4-.8-.3-1.4-.9-1.9-1.8-.5-.9-.8-2.1-.8-3.8Zm5-32.8c0-.3,.3-.5,1-.9,.8-.3,1.6-.5,2.6-.6,1,0,1.9,0,2.8,.3,.8,.3,1.3,.9,1.3,1.9s-.1,1.2-.3,2c-.2,.8-.5,1.7-.8,2.6-.3,.9-.7,1.7-1.1,2.5-.4,.8-.8,1.4-1.1,1.7-.3,.3-.6,.4-1.2,.4-.5,0-1.1,0-1.6-.3s-.9-.6-1.2-1.2c-.3-.5-.4-1.3-.2-2.2,0-.3,.2-.8,.3-1.4,.1-.6,.2-1.2,.3-1.8,0-.6,0-1.2,0-1.8,0-.6-.3-1-.6-1.3Z"/><path class="b" d="M417.4,40.3c.3-.5,.6-.8,1-.8s.9,.4,.9,1.1,0,.6-.1,.8c-.6,1.5-1.2,3-1.8,4.5-.6,1.5-1.2,2.9-1.8,4.1-.6,1.2-1.3,2.2-2,3-.7,.8-1.5,1.2-2.4,1.2s-.8,0-1.5-.1c-.7,0-1.3-.4-2-1-1.1,2.5-2.6,4.8-4.4,6.8-1.9,2-4,3-6.4,3s-3.3-.5-4.5-1.5c-1.3-1-2-3-2.1-6,0-2.3,.1-4.8,.7-7.3,.5-2.5,1.4-4.9,2.4-7,1.1-2.1,2.5-3.9,4.1-5.2,1.7-1.3,3.6-2,5.8-2s4.3,.9,5.2,2.6c.9,1.8,1.4,3.9,1.6,6.4,0,.9,0,2.1-.1,3.5-.2,1.4-.6,3-1.4,4.9,.2,0,.6,.4,1.3,.8,.7,.5,1.3,.5,2,0,.8-.4,1.5-1.5,2.4-3.3,.8-1.8,2-4.6,3.4-8.5Zm-20.7,15.4c0,.8,.2,1.7,.5,2.6,.3,.9,1,1.3,2.1,1.3s2.7-.8,3.9-2.3c1.2-1.5,2.2-3.4,3-5.4-.8-1-1.2-2.3-1.4-4,0-1.4,.3-2.7,1-3.8,.7-1.1,1.3-1.9,1.9-2.3,0-1.1-.3-2.3-.7-3.5s-1-1.9-1.9-1.9-2,.7-3.1,2c-1,1.3-2,3-2.8,5-.8,2-1.4,4.1-1.9,6.4-.5,2.3-.7,4.3-.7,6Zm11-11.3c0-.4,0-.7,.1-.8,0-.1,0-.3,0-.6-.2,.4-.5,1.1-.9,1.9-.3,.9-.5,1.9-.5,3.2,0,.2,.1,.5,.2,.8,0,.3,.1,.5,.2,.7,.2-.8,.4-1.7,.6-2.6,.1-.9,.2-1.8,.3-2.7Z"/><path class="b" d="M440.2,40.3c.3-.6,.7-.8,1.3-.6,.6,.2,.8,.8,.5,1.7,0,.3-.3,.9-.8,1.9-.4,1-.9,2.3-1.6,3.8-.6,1.5-1.4,3-2.2,4.6-.8,1.6-1.7,3.2-2.7,4.6-1,1.4-2,2.7-3.1,3.7-1.1,1-2.2,1.7-3.3,1.9-.5,.2-1.1,.2-1.9,0-.8-.1-1.5-.4-2.1-.9-.7-.5-1.3-1.1-1.8-2.1-.5-.9-.8-2.1-.8-3.5s.2-2.8,.8-4.8c.5-2,1.1-4.1,1.8-6.1,.8-2.3,1.6-4.8,2.5-7.4-.3,0-1.1,1-2.4,2.8-1.3,1.8-2.6,3.8-4.1,6.2-1.5,2.4-2.8,4.8-3.9,7.3-1.2,2.5-1.9,4.6-2.1,6.1,0,.3,0,.5,.1,.6,.6,.4,.8,.8,.6,1.1-.2,.3-.5,.5-1,.6-.5,0-1.1,0-1.8-.2-.7-.2-1.2-.6-1.5-1.2-1.2-1.8-1.3-4.6-.4-8.6,.2-.9,.6-2.1,.9-3.6,.4-1.5,.7-2.9,1.1-4.4,.3-1.5,.6-2.9,.8-4.2,.2-1.3,.3-2.2,.2-2.7-.2-.7,.1-1.2,.9-1.7,.8-.5,1.7-.7,2.6-.8,1,0,1.8,.2,2.6,.6,.8,.5,1.1,1.2,.9,2.2,0,.3,0,1.1,0,2.4,0,1.3-.3,2.7-.8,4.2,0,.2,0,.4-.1,.6,0,.2-.2,.4-.3,.6h0c0,.2,0,.3-.1,.4,0-.3,.4-.9,1-1.8,.6-1,1.3-2,2.1-3.1,.8-1.1,1.6-2.2,2.4-3.2,.8-1,1.5-1.7,2.2-2,1.2-.6,2.4-.6,3.6-.2,1.3,.5,2,1.5,2.1,3.2,0,.4,0,1.2-.4,2.4-.3,1.2-.8,2.6-1.3,4.1-.5,1.5-1,3.2-1.5,4.8-.5,1.7-.9,3.2-1.3,4.6-.3,1.4-.5,2.6-.6,3.5,0,.9,0,1.4,.5,1.4,1,0,2.1-.5,3.3-1.9,1.2-1.3,2.3-3,3.4-4.9,1.1-2,2.1-4,3-6.3,.9-2.2,1.7-4.2,2.4-5.9Z"/></g></g><g><path class="b" d="M480.5,44.6c-.7,2-1.4,4.6-2.1,7.8-.7,3.2-1.3,6.4-1.7,9.5-.4,3.1-.6,5.9-.6,8.3,0,2.4,.4,3.8,1.2,4.1,1.2,.6,1.8,1.2,1.9,1.9,0,.7-.2,1.2-.9,1.5-.7,.3-1.7,.3-3.1,0-1.4-.3-2.9-1.2-4.6-2.6-1.3-1-2-2.9-2.2-5.6-.2-2.8-.1-5.8,.3-9.1,.4-3.3,1-6.7,1.8-10.2,.8-3.5,1.6-6.4,2.3-8.8,.8-2.7,1.6-5.2,2.4-7.6,.8-2.4,1.4-4.5,1.9-6.4,.5-1.9,.9-3.6,1.2-4.9,.2-1.4,.3-2.4,.1-3.2,0,0,0-.1,0-.1s0,0,0-.1c-2.2,1.9-4.1,4-5.8,6.1-1.7,2.2-3,4.4-3.9,6.6-1,2.2-1.5,4.3-1.8,6.3-.2,2,0,3.8,.8,5.4v.3c.6,0,1,.2,1.3,.6,.3,.4,.5,1,.8,1.6,.3,.7,.2,1.1-.1,1.3-.3,.3-.8,.2-1.4-.1-.6-.3-1.1-.7-1.3-1.1-.3-.3-.4-.8-.4-1.3-.2-.2-.3-.3-.3-.5,0-.2-.1-.3-.3-.5-.8-1.5-1-3.5-.8-5.9,.2-2.4,.9-5,2-7.7,1.1-2.7,2.8-5.4,4.9-8.1,2.1-2.7,4.7-5.2,7.8-7.3,3.1-2.2,6.6-4,10.6-5.4,4-1.4,8.5-2.1,13.5-2.1s6,1.1,7.9,3.3c1.9,2.2,3,4.9,3.3,8.1,.3,3.3-.3,6.9-1.8,10.8-1.5,4-4,7.8-7.5,11.6-2.2,2.3-4.5,4.2-7,5.7-2.5,1.5-4.9,2.6-7.1,3.4-2.3,.8-4.3,1.4-6.1,1.6-1.8,.3-3.2,.3-4,.1-1.3-.2-1.8-.6-1.7-1.2s.6-.9,1.6-.9c2-.3,4.5-1,7.6-2.1,3-1.1,6-3,8.8-5.6,3.1-3,5.4-6.4,6.9-10.1,1.5-3.8,2.3-7.3,2.4-10.6,0-3.3-.6-6-2-8.2-1.4-2.2-3.4-3.2-6.1-3-3.3,.3-6.4,1-9.3,2.1-3,1.2-5.7,2.6-8.2,4.4,.8,0,1.5,.3,2.4,.7,.8,.4,1.5,.9,2.1,1.7,.5,.8,.9,1.7,1.1,2.9,.2,1.2,0,2.5-.4,4l-6.3,18.9Z"/><path class="b" d="M599.6,37.3c-.2-.3-.4-.6-.6-.8-.2-.2-.5-.2-.8-.1-.3,0-.5,.3-.6,.6-.6,2-1.4,4.2-2.4,6.6-1,2.4-2.2,4.6-3.4,6.6-1.2,2-2.4,3.7-3.4,4.9-1.1,1.3-2,1.8-2.6,1.6-.3,0-.4-.3-.4-.6,0-.3,0-.6,0-.8,.3-.9,.6-2.2,1-3.9,.4-1.7,.8-3.4,1.3-5.3,.4-1.8,.8-3.6,1-5.3,.2-1.7,.3-3.1,.2-4.1,0-1-.5-1.6-1.2-1.9-.7-.3-1.5-.4-2.3-.4s-1.5,.1-2.2,.4c-.7,.3-1,.5-1,.6l.5,.8c.3,.5,.5,.9,.5,1.3,0,.7-.1,1.6-.4,2.7-.3,1.1-.6,2.3-1.1,3.6-1.4,2.4-2.9,4.9-4.4,7.4-1.5,2.5-2.8,4.6-4,6.2-1.2,1.5-1.8,2-1.8,1.5,0-.5,.2-1.6,.6-3.4,.5-1.8,1-4,1.8-6.6,.7-2.7,1.2-5.4,1.4-8.1,.2-1.5,0-2.6-.6-3.4-.6-.8-1.2-1.4-1.9-1.8-.6-.3-1.6-.6-3.1-.8-1.5-.2-3,0-4.7,.8-.5,.3-.7,.6-.6,1,.1,.4,.3,.5,.6,.4,1.8-.8,2.9-.9,3.4-.2,.5,.7,.9,1.5,.9,2.3,0,.5,0,1.2-.1,1.9-.5,1.6-1.2,3.3-1.9,5.3-.8,2.3-1.7,4.4-2.7,6.3-1,2-1.9,3.6-2.8,5-.9,1.4-1.8,2.1-2.5,2.1h-.6c0,0,0-.2,.1-.5,0-1.3,.3-3.4,.9-6.1,.6-2.7,1.3-5.7,2.1-8.9,.8-3.2,1.6-6.4,2.4-9.6,.8-3.2,1.4-5.9,1.9-8.3,1.3-.3,3.4-.4,6.1-.6,2.7-.1,5.3,0,7.8,.3,2.5,.3,4.6,.9,6.3,1.7,1.7,.8,2.2,2.1,1.5,3.8-.5,1.4-.7,2.3-.6,2.7,0,.4,.3,.5,.6,.3,.3-.2,.7-.5,1.1-1.1,.4-.5,.8-1.1,1-1.6,.3-1.7,0-3-.8-4s-2.1-1.8-3.8-2.4c-1.6-.6-3.4-1-5.4-1.1-2-.2-3.9-.3-5.8-.3-1.9,0-3.5,0-5,.1-1.5,.1-2.4,.2-2.8,.2,.2-.9,.5-1.8,.6-2.6,.2-.8,.2-1.6,0-2.3,.2-1.8-.3-3.1-1.4-3.9-1.1-.8-2.4-1.2-3.9-1.2s-3,.4-4.6,1.2c-1.5,.8-2.7,1.9-3.5,3.3-.8,1.4-1,3-.6,5,0,.4,.2,.8,.4,1.2-1.3,0-2.5,.1-3.9,.2-1.3,0-2.6,0-3.8,0-.2,0-.4,.1-.6,.4-.3,.3-.3,.5,0,.6,.2,.3,.8,.4,2,.4s2.5,0,3.9,0c1,0,2,0,3-.1,.7,1.3,1.7,2.6,3.1,3.9,.2,.4,.5,.6,.8,.8,0,.4-.1,.8-.2,1.2-.5,2.5-1,5.2-1.6,8-.5,2.6-1.1,5.2-1.5,7.8-.8,1.7-1.6,3.2-2.4,4.7-1.2,2.2-2.3,3.9-3.3,5.3s-1.6,2.1-1.9,2.1c-.7,0-1.1-.5-1.2-1.4-.1-.9,0-2.1,.1-3.5,.2-1.4,.5-3,1-4.7,.5-1.7,1-3.4,1.6-5,.6-1.6,1.1-3.1,1.7-4.4,.5-1.3,1-2.3,1.3-3,.5-.9,.6-1.9,.3-2.9-.3-1-.9-1.7-1.8-2.1-.8-.5-1.7-.6-2.6-.4-.9,.3-1.7,.7-2.4,1.3-.3,.2-.8,.5-1.5,1.1-.7,.6-1.4,1.2-2.1,1.8-.9,.8-1.8,1.5-2.8,2.3,1-2.2,1.7-4.1,2-5.8,.2-1.4,.1-2.7-.4-3.8-.5-1.1-1.8-1.5-3.9-1.3-.7,0-1.5,.6-2.4,1.7-.9,1-1.2,2.9-.9,5.7,.2,1.7,.6,2.9,1.4,3.6,.8,.8,1.5,1.3,2.1,1.6-.6,1.2-1.2,2.7-1.8,4.6,0,.2-.1,.3-.2,.5,0,.1-.1,.3-.2,.4-1,2.2-2.1,4.2-3.1,6.1-1,1.9-1.9,3.5-2.8,4.8-.9,1.3-1.5,1.9-1.9,1.9s-.6-.7-.4-2.1c.2-1.4,.6-3.1,1.2-4.9,.5-1.9,1.1-3.8,1.8-5.8,.6-2,1.1-3.6,1.3-4.8,.2-1-.2-1.6-1.1-1.8-.9-.2-1.8-.2-2.9,0-1,.3-2,.6-2.8,.9-.8,.4-1.1,.6-.8,.7,.4,.2,.3,1.2-.4,3-.7,1.8-1.5,3.8-2.6,6-1,2.2-2.1,4.1-3.3,5.9s-1.9,2.7-2.3,2.8c-.9,0-1.5-.9-1.7-2.9-.2-2-.1-4.3,.3-6.9,.4-2.6,1.1-5.1,2.2-7.4,1-2.4,2.4-3.9,3.9-4.4,1.8-.7,3.2-.8,4.3-.4s2.1,.8,3.1,1.2c.6,.3,.9,.1,.9-.3s-.8-1.1-2.3-2.1c-.7-.4-1.6-.7-2.9-.9-1.3-.2-2.6-.1-3.9,0-1.4,.2-2.8,.7-4.1,1.4-1.4,.7-2.5,1.8-3.3,3.2-.8,1.4-1.6,3-2.2,4.7-.6,1.7-1.1,3.4-1.5,5.2-.4,1.8-.6,3.4-.7,5,0,1.6,0,2.9,.2,4,.3,1.3,.8,2.2,1.6,2.8,.8,.6,1.8,.9,2.8,1,1,0,2.1-.1,3.2-.6,1.1-.5,2-1.1,2.6-2.1,.4-.7,.9-1.3,1.3-1.9,.5-.6,.8-1.1,1.1-1.6-.4,1.5-.4,2.8,.2,3.8,.5,1,1.3,1.7,2.4,2.1,1,.3,2.3,.3,3.6-.2,1.4-.5,2.7-1.4,3.9-2.8,1.6-1.8,3-4.1,4.3-6.7,.2,0,.3-.3,.4-.7,.1-.3,.3-.7,.5-1.2,1.4-3.1,2.8-6,4.2-8.8,.1-.3,.2-.5,.2-.8,.6,0,1.1-.2,1.5-.4,.4-.2,.7-.4,.9-.6,.2-.2,.5-.4,.6-.4,.2,0,.4-.1,.8-.1,.3,0,.5,.3,.4,.6,0,.3-.3,.8-.5,1.6-.4,1.1-1,2.7-1.7,4.9-.7,2.2-1.2,4.5-1.5,6.8-.3,2.3-.2,4.4,.3,6.3s1.8,3.1,3.8,3.6c1.6,.4,3.1,.1,4.4-.8,1.4-1,2.7-2.3,3.9-3.9,.4-.5,.7-1,1-1.5-.1,1.6,.2,2.9,.9,3.9,.9,1.3,2.2,1.9,3.9,1.9s2.5-.5,3.6-1.5c1.2-1,2.3-2.3,3.3-3.8,.4-.6,.7-1.2,1.1-1.8,0,.1,0,.2,0,.3-.4,1.7-.6,2.9-.6,3.4s.2,1.3,.8,1.8c.5,.5,1.1,.9,1.9,1.1s1.6,.3,2.5,.2c.9-.1,1.8-.5,2.6-1.2,.3-.3,.8-.9,1.3-1.6,.5-.7,1.1-1.5,1.7-2.3,.6-.8,1.1-1.6,1.6-2.4,.5-.8,1-1.5,1.4-2.1,0,.6-.3,1.7-.6,3.3-.3,1.6-.8,3.5-1.4,5.6-.6,2.1-1.3,4.4-2.1,6.7-.8,2.3-1.7,4.5-2.6,6.4-1,2-2,3.6-3,4.8-1,1.3-2.1,1.9-3.2,1.9s-1.9-.4-2.8-1.3c-1-.8-1.4-2.3-1.4-4.4s.2-3.6,.8-5c.5-1.4,1.1-2.6,1.7-3.4s1.3-1.5,1.9-1.9c.7-.4,1.2-.6,1.5-.6,.7,0,1.1,.3,1.3,.8,.2,.5,.3,1.1,.2,1.8,0,.7-.2,1.3-.4,2-.2,.7-.3,1.1-.4,1.4,0,.4,.1,.6,.4,.6,.4,0,.8-.4,1.1-1.3,.3-.8,.5-1.8,.5-2.8s-.2-1.9-.7-2.8c-.5-.8-1.2-1.3-2.2-1.3s-1.4,.3-2.3,.8c-.9,.5-1.7,1.3-2.4,2.3-.8,1-1.4,2.4-1.9,3.9-.5,1.6-.8,3.5-.8,5.6s.6,4.2,1.7,5.5c1.1,1.3,3.2,2,6.1,2s4-1,5.8-2.9c1.8-2,3.3-4.3,4.6-6.9,1.3-2.6,2.5-5.3,3.4-8.1,1-2.8,1.7-4.9,2.3-6.5,1.6,.5,3.2,.1,4.8-1.1,1.6-1.3,3.1-2.9,4.5-5.1,1.4-2.1,2.7-4.5,3.8-7.1,1.1-2.6,2-5.1,2.6-7.3,.2-.3,.2-.7,0-1Zm-44.4-17.4c.4-1.3,1-2.2,1.9-2.8,.9-.6,2-.8,3.1-.4,.2,0,.2,.3,.2,.9,0,.6-.1,1.3-.3,2.1-.2,.8-.3,1.6-.5,2.5-.2,.9-.3,1.6-.4,2.2-.6,0-1.4,0-2.4,.2-.5,0-1.1,.1-1.7,.2,0-.1,0-.2,0-.4-.3-1.7-.2-3.1,.1-4.4Zm2.3,9.3c-.9-1-1.5-2.1-1.9-3.1,1.3,0,2.4,0,3.2,0-.2,1-.4,2.2-.6,3.7-.3-.2-.5-.4-.6-.6Z"/></g><g><path class="b" d="M162.7,134.7c0,1.1,0,2,.1,2.8,0,.7,.2,1.3,.5,1.8,.3,.5,.7,.8,1.3,1,.6,.2,1.3,.4,2.3,.4v.5c-1,0-2,0-3-.1-1,0-2,0-3,0s-2,0-2.9,0c-1,0-1.9,0-2.9,.1v-.5c1,0,1.7-.2,2.2-.4,.5-.2,.9-.5,1.2-1,.3-.5,.5-1,.5-1.8,0-.7,.1-1.7,.1-2.8v-13.4c0-1.1,0-2-.1-2.8,0-.7-.2-1.3-.5-1.8-.3-.5-.7-.8-1.3-1-.6-.2-1.3-.4-2.3-.4v-.5c1.1,0,2.2,0,3.3,.1,1.1,0,2.1,0,3.3,0s1.8,0,2.6,0,1.7,0,2.6-.1v.5c-.9,0-1.7,.2-2.2,.4-.5,.2-.9,.5-1.2,1-.3,.5-.4,1-.5,1.8,0,.7-.1,1.7-.1,2.8v6.8l6.1-5c.6-.5,1.1-.9,1.6-1.4,.5-.5,1-1,1.3-1.5,.4-.5,.7-1,.9-1.4,.2-.5,.3-.9,.3-1.2s0-.7-.3-1c-.2-.3-.4-.5-.7-.7-.3-.2-.6-.3-.9-.4-.3,0-.7-.1-1-.1v-.5c1,0,2,0,3,.1,1,0,2,0,3,0s2.1,0,3.2,0c1.1,0,2.1,0,3.2-.1v.5c-.7,0-1.3,.2-1.9,.4s-1.2,.5-1.8,.8c-.6,.4-1.3,.8-2,1.4-.7,.5-1.5,1.2-2.5,2l-5,4.2,8.1,11.9c.8,1.2,1.8,2.2,2.8,3.1,1.1,.9,2.3,1.4,3.7,1.5v.5c-1.1,0-2.3,0-3.4-.1-1.1,0-2.3,0-3.4,0s-2.1,0-3.1,0c-1,0-2.1,0-3.1,.1v-.5c1,0,1.8-.3,2.5-.6,.7-.3,1.1-1,1.1-1.8s-.1-.8-.4-1.2c-.3-.4-.7-1-1.2-1.8l-6-8.9-3.8,3v5.3Z"/><path class="b" d="M187.4,132.6c0,1.4,.2,2.5,.5,3.4,.4,.9,.8,1.6,1.4,2.2,.5,.5,1.1,.9,1.8,1.1,.6,.2,1.2,.3,1.7,.3,1.1,0,2.1-.2,3-.5,.9-.4,1.7-.9,2.5-1.7l.7,.6c-1.1,1.2-2.2,2.1-3.4,2.7-1.1,.6-2.5,.9-4.1,.9s-2.2-.2-3.1-.7c-.9-.5-1.7-1.1-2.3-1.8-.6-.7-1.1-1.6-1.5-2.6-.3-1-.5-1.9-.5-3s.2-2,.5-3c.3-1,.8-1.8,1.5-2.6,.6-.7,1.4-1.3,2.3-1.8,.9-.5,1.9-.7,3.1-.7,2.1,0,3.8,.6,5.1,1.7,1.3,1.1,2.1,2.9,2.4,5.2h-11.6Zm7.8-1.2c0-.7-.2-1.4-.3-1.9-.1-.6-.3-1.1-.6-1.4-.3-.4-.7-.7-1.2-.9s-1.1-.3-1.8-.3-1.1,.1-1.5,.4c-.5,.3-.9,.6-1.2,1.1-.3,.4-.6,.9-.8,1.5-.2,.5-.3,1.1-.3,1.6h7.7Z"/><path class="b" d="M201.5,126.8l5.8-.9v2.1c.7-.6,1.5-1.1,2.5-1.6,.9-.5,1.8-.8,2.7-.8s1.5,0,2.1,.3c.7,.2,1.3,.5,1.8,.9,.5,.4,1,1,1.3,1.7,.3,.7,.5,1.6,.5,2.7v7c0,.9,.2,1.5,.7,1.7,.5,.3,1.2,.5,2.1,.7v.5c-.8,0-1.6,0-2.5-.1-.9,0-1.8,0-2.7,0s-1.2,0-1.8,0c-.6,0-1.1,0-1.7,.1v-.5c.9-.2,1.5-.4,2-.7,.5-.3,.7-.9,.7-1.7v-6.4c0-1.4-.3-2.4-.9-3.2-.6-.7-1.5-1.1-2.8-1.1s-.9,0-1.4,.2c-.5,.1-.9,.3-1.3,.5-.4,.2-.7,.5-1,.7s-.4,.5-.4,.8v8.5c0,.9,.3,1.5,.8,1.7,.5,.3,1.3,.5,2.3,.7v.5c-.9,0-1.8,0-2.7-.1-.9,0-1.8,0-2.7,0s-1.2,0-1.8,0c-.6,0-1.2,0-1.8,.1v-.5c.9-.2,1.6-.4,2.1-.7,.5-.3,.7-.9,.7-1.7v-9.3c0-.8-.3-1.3-.8-1.5-.5-.2-1.2-.3-1.9-.3v-.5Z"/><path class="b" d="M223.6,135.9h.6c.4,.6,.8,1.1,1.3,1.6,.5,.5,1,1,1.5,1.4s1.2,.8,1.8,1c.6,.3,1.3,.4,2,.4s.7,0,1.1,0,.7-.2,1-.3,.5-.4,.7-.6c.2-.3,.3-.6,.3-1,0-.7-.2-1.2-.7-1.6-.5-.4-1.1-.8-1.8-1.1-.7-.3-1.5-.6-2.4-.9-.9-.3-1.7-.6-2.4-1-.7-.4-1.3-.9-1.8-1.4-.5-.6-.7-1.3-.7-2.2,0-1.4,.4-2.5,1.3-3.3,.9-.8,2-1.2,3.4-1.2s2,.1,2.9,.4c.9,.3,1.9,.4,2.9,.5l.2,4.2h-.5c-.3-.5-.6-1-1-1.5-.4-.5-.8-.9-1.3-1.2-.5-.4-1-.7-1.6-.9s-1.1-.3-1.7-.3-1.3,.1-1.8,.4c-.5,.3-.8,.8-.8,1.6s.2,1,.7,1.4c.5,.4,1.1,.7,1.8,1,.7,.3,1.5,.6,2.4,.9,.9,.3,1.7,.6,2.4,1.1,.7,.4,1.3,.9,1.8,1.5,.5,.6,.7,1.3,.7,2.2s-.2,1.7-.5,2.3c-.3,.6-.7,1.1-1.3,1.4-.5,.3-1.2,.6-1.9,.7-.7,.1-1.5,.2-2.3,.2s-1.3,0-1.8-.1c-.6,0-1.1-.2-1.7-.3-.5-.1-1-.3-1.5-.4-.5-.1-.9-.2-1.2-.2l-.3-4.6Z"/><path class="b" d="M240.2,129.3c.2-.8,.5-1.5,.9-2,.4-.5,.8-.9,1.3-1.1,.5-.3,1.1-.4,1.7-.5,.6,0,1.3-.1,2-.1s1.4,0,2.1,.2c.7,.1,1.3,.4,1.8,.7,.5,.3,1,.8,1.3,1.4,.3,.6,.5,1.3,.5,2.1v7.4c0,.5,.1,1,.4,1.3,.3,.4,.7,.6,1.2,.6s1-.2,1.4-.5c.4-.3,.8-.6,1.2-.9l.4,.4c-.3,.3-.6,.6-.9,.9-.4,.4-.7,.7-1.1,1-.4,.3-.8,.6-1.2,.8-.4,.2-.8,.3-1.2,.3s-.5,0-.8-.3c-.3-.2-.6-.4-.9-.6-.3-.2-.5-.5-.8-.8-.2-.3-.5-.5-.6-.7-.9,.6-1.8,1.1-2.9,1.6-1.1,.5-2.1,.7-3.1,.7s-1.1,0-1.6-.3c-.5-.2-1-.5-1.4-.8-.4-.3-.7-.8-1-1.2s-.4-1-.4-1.6c0-1.1,.3-2,.9-2.6,.6-.7,1.4-1.2,2.4-1.5,1-.3,2.1-.6,3.3-.7,1.2-.1,2.5-.2,3.7-.2v-3c0-1-.3-1.7-.9-2.3-.6-.5-1.4-.8-2.3-.8s-1.2,.3-1.6,1c-.4,.7-.6,1.5-.6,2.4l-3.3-.6Zm8.7,4.9c-.9-.2-1.8-.4-2.7-.4s-1,0-1.5,.2c-.5,.1-1,.3-1.4,.6-.4,.3-.7,.6-1,1s-.4,.9-.4,1.5c0,.9,.3,1.6,.9,1.9,.6,.4,1.3,.6,2.1,.6s1.6-.2,2.3-.5,1.2-.6,1.5-.9v-4Z"/><path class="b" d="M256.7,140.7c.7,0,1.3-.2,1.7-.4,.4-.2,.7-.5,.8-.8,.2-.3,.3-.8,.3-1.3,0-.5,0-1.2,0-2v-18.6c0-.8,0-1.4-.2-1.9s-.3-.9-.5-1.2c-.2-.3-.6-.5-.9-.6-.4-.1-.8-.2-1.3-.2v-.5l6.1-.7v21.5c.3-.3,.8-.6,1.4-1.1,.7-.5,1.3-1,2-1.6,.7-.6,1.3-1.1,1.8-1.7,.5-.6,.8-1.1,.8-1.5s-.1-.7-.3-.9c-.2-.2-.5-.3-.9-.3v-.5h7.8v.5c-.8,.1-1.5,.4-2.2,.7-.7,.3-1.4,.7-2,1.2-.6,.4-1.3,.9-1.9,1.4s-1.2,1-1.8,1.5c.6,.7,1.3,1.6,2,2.6s1.4,1.9,2.2,2.9,1.7,1.8,2.6,2.5c.9,.7,1.9,1.1,2.9,1.3v.5c-.8,0-1.6,0-2.4-.1-.8,0-1.6,0-2.5,0s-1.7,0-2.5,0c-.8,0-1.7,0-2.5,.1v-.5c.5,0,.9,0,1.4-.3,.5-.2,.7-.6,.7-1.2s-.2-.8-.5-1.3c-.3-.5-.7-1.1-1.2-1.7-.4-.6-.9-1.1-1.3-1.7-.5-.5-.8-1-1-1.3l-2.6,1.9v3c0,.9,.2,1.5,.6,1.8,.4,.4,1.1,.6,2.2,.7v.5c-.9,0-1.8,0-2.6-.1-.9,0-1.7,0-2.6,0s-1.2,0-1.8,0c-.6,0-1.2,0-1.8,.1v-.5Z"/><path class="b" d="M284.2,136.1c0,1.1,.3,2,.9,2.6,.6,.6,1.4,.9,2.5,.9s1.7-.2,2.5-.6c.8-.4,1.5-.8,1.9-1.3v-8.4c0-.3,0-.7,0-1,0-.3-.2-.6-.4-.8-.2-.2-.5-.4-1-.6-.4-.2-1-.3-1.7-.4v-.4l6.3-.4v12.3c0,1,.3,1.7,.8,2,.5,.3,1.2,.5,2.2,.6v.4c-1,0-2,0-3.1,.1-1,0-2,0-3,.1v-2.1c-.9,.7-1.9,1.3-2.9,1.8-1,.5-2.1,.8-3.3,.8s-2.4-.4-3.3-1.1c-.9-.7-1.4-1.8-1.4-3.3v-8.3c0-.8-.2-1.3-.7-1.6-.4-.3-1.2-.5-2.3-.6v-.5l6.1-.5v10.5Z"/><path class="b" d="M329.8,123.1c.8,0,1.6,0,2.4,.1,.8,0,1.6,0,2.4,0s1.4,0,2.1,0c.7,0,1.4,0,2.1-.1v.5c-.7,0-1.4,.1-1.9,.4-.6,.3-1.1,.7-1.6,1.2-.5,.5-.9,1.1-1.3,1.7-.4,.7-.8,1.4-1.1,2.1-.5,1.1-1.1,2.2-1.6,3.3s-1.1,2.3-1.8,3.3c.8,1.6,1.9,2.8,3.2,3.5,1.3,.8,2.8,1.3,4.6,1.5v.5c-.3,0-.6,0-1,0-.4,0-.8,0-1.2,0-.4,0-.8,0-1.2,0h-1c-.7,0-1.5,0-2.2,0-.7,0-1.5,0-2.2,.1l-1.3-2.7c-1.1,1-2.2,1.8-3.5,2.4s-2.6,1-4.1,1-2-.2-2.9-.6c-.9-.4-1.7-.9-2.3-1.5-.7-.7-1.2-1.4-1.5-2.3-.4-.9-.6-1.9-.6-2.9s.2-2.1,.7-3,1.1-1.7,1.8-2.4c.7-.7,1.6-1.3,2.6-1.8s1.9-.9,2.9-1.1c-.5-.4-1-.7-1.6-1.1-.5-.4-1.1-.8-1.5-1.2-.5-.4-.9-.9-1.2-1.5-.3-.6-.5-1.2-.5-1.9s.2-1.5,.5-2.1c.4-.6,.8-1.1,1.4-1.5,.6-.4,1.2-.7,1.9-1,.7-.2,1.4-.3,2.1-.3s1.7,0,2.5,.3c.8,.2,1.5,.5,2.1,.9,.6,.4,1.1,1,1.5,1.7,.4,.7,.5,1.5,.5,2.5s-.1,1.5-.4,2c-.3,.5-.6,1-1.1,1.4-.4,.4-.9,.7-1.5,1-.6,.3-1.2,.6-1.8,.9,1.3,1.2,2.3,2.5,3.2,4,.9,1.5,1.7,3,2.5,4.5,.3-.4,.6-1,1-1.8,.4-.8,.7-1.6,1.1-2.5,.3-.9,.6-1.7,.9-2.6,.2-.8,.3-1.5,.3-2.1s-.2-1.2-.6-1.5c-.4-.3-1-.6-1.6-.8v-.4Zm-14.3,10.6c0,.7,.1,1.4,.4,2.1,.3,.7,.7,1.3,1.2,1.9s1.1,1,1.9,1.3c.7,.3,1.5,.5,2.5,.5s1.7-.2,2.7-.6,1.7-.9,2.3-1.5c-.4-.9-.7-1.8-1.1-2.8-.4-.9-.8-1.9-1.2-2.8-.4-.9-.9-1.8-1.4-2.7-.5-.9-1.1-1.7-1.8-2.4-1.6,.5-2.9,1.3-3.9,2.4s-1.5,2.6-1.5,4.4Zm2.9-13.1c0,.8,.2,1.5,.6,2.1,.4,.6,.8,1.1,1.3,1.5,.5,.4,.9,.7,1.3,1s.6,.3,.6,.3c.2-.2,.5-.3,.9-.5,.3-.2,.7-.4,1-.7,.3-.3,.6-.7,.8-1.1,.2-.5,.3-1,.3-1.7s0-1.2-.2-1.8-.4-1.1-.7-1.5c-.3-.4-.7-.8-1.1-1-.5-.3-1-.4-1.6-.4s-1,.1-1.3,.3c-.4,.2-.7,.5-1,.9-.3,.4-.4,.8-.6,1.3-.1,.5-.2,.9-.2,1.4Z"/><path class="b" d="M368.8,122.4c-.3-.9-.8-1.7-1.3-2.5-.5-.8-1.2-1.6-1.9-2.2-.7-.7-1.5-1.2-2.4-1.6-.9-.4-1.8-.6-2.9-.6-1.5,0-2.8,.3-3.7,.8-1,.6-1.5,1.6-1.5,3s.2,1.6,.7,2.2,1,1.2,1.8,1.7c.7,.5,1.6,.9,2.5,1.3,.9,.4,1.9,.8,2.9,1.2,1,.4,1.9,.9,2.9,1.3,.9,.5,1.8,1.1,2.5,1.7,.7,.7,1.3,1.4,1.8,2.3,.4,.9,.7,1.9,.7,3.2s-.2,2.4-.7,3.4-1.1,1.7-1.9,2.3c-.8,.6-1.8,1.1-2.8,1.4-1.1,.3-2.2,.4-3.5,.4s-1.4,0-2.1-.2c-.7-.1-1.4-.3-2.1-.4-.7-.2-1.3-.3-1.8-.4-.5-.1-1-.2-1.3-.2s-.6,0-.8,.1c-.3,0-.5,.2-.8,.3-.2-1.5-.5-3-.8-4.4-.3-1.4-.7-2.9-1-4.4l.5-.3c.5,.9,1.1,1.9,1.7,2.9,.7,1,1.4,1.9,2.3,2.8,.9,.8,1.8,1.5,2.8,2.1,1,.6,2.1,.8,3.3,.8s1.5,0,2.2-.3c.7-.2,1.4-.4,1.9-.8,.5-.4,1-.9,1.3-1.5,.3-.6,.5-1.3,.5-2.2,0-1.3-.4-2.3-1.2-3.1-.8-.8-1.7-1.6-2.9-2.2s-2.4-1.2-3.7-1.7c-1.3-.5-2.6-1.1-3.7-1.8-1.1-.7-2.1-1.5-2.9-2.4-.8-.9-1.2-2-1.2-3.4s.2-2,.6-2.8c.4-.9,.9-1.6,1.6-2.2,.7-.6,1.5-1.1,2.4-1.4,.9-.3,1.8-.5,2.9-.5s1.9,0,2.7,.2c.8,.1,1.6,.3,2.3,.4,.8,.2,1.5,.3,2.3,.5,.7,.1,1.5,.2,2.4,.2,0,1.2,0,2.4,0,3.5,0,1.1,.1,2.3,.3,3.4h-.6Z"/><path class="b" d="M392.9,141.2c-.8,0-1.6,0-2.5-.1-.9,0-1.8,0-2.7,0s-1.2,0-1.8,0c-.6,0-1.1,0-1.7,.1v-.5c.9-.2,1.5-.4,2-.7,.5-.3,.7-.9,.7-1.7v-6.4c0-1.4-.3-2.4-.9-3.2-.6-.7-1.5-1.1-2.8-1.1s-.9,0-1.4,.2c-.5,.1-.9,.3-1.3,.5s-.7,.5-1,.7-.4,.5-.4,.8v8.5c0,.9,.3,1.5,.8,1.7,.5,.3,1.3,.5,2.3,.7v.5c-.9,0-1.8,0-2.7-.1-.9,0-1.8,0-2.7,0s-1.2,0-1.8,0c-.6,0-1.2,0-1.8,.1v-.5c.9-.2,1.6-.4,2.1-.7,.5-.3,.7-.9,.7-1.7v-20.4c0-1,0-1.7-.1-2.3s-.3-1-.5-1.2c-.2-.3-.5-.5-.9-.5-.4,0-.9-.1-1.5-.2v-.5l6.1-.7v15.5c.7-.6,1.5-1.1,2.5-1.6,.9-.5,1.8-.8,2.7-.8s1.5,0,2.1,.3,1.3,.5,1.8,.9c.5,.4,1,1,1.3,1.7s.5,1.6,.5,2.7v7c0,.9,.2,1.5,.7,1.7,.5,.3,1.2,.5,2.1,.7v.5Z"/><path class="b" d="M397.6,131c0-.6,0-1.2,0-1.7,0-.5-.2-.9-.4-1.2-.2-.3-.5-.6-.9-.8-.4-.2-.9-.4-1.6-.4v-.6l6.1-.4v11.8c0,.7,0,1.2,.2,1.6,.1,.4,.3,.7,.5,.9,.3,.2,.6,.3,1,.4s.9,.1,1.5,.2v.5c-.9,0-1.9,0-2.8-.1-.9,0-1.9,0-2.8,0s-1.2,0-1.8,0c-.6,0-1.2,0-1.8,.1v-.5c.5,0,1,0,1.4-.2,.4,0,.7-.2,.9-.4,.2-.2,.4-.5,.5-.9,.1-.4,.2-.9,.2-1.6v-6.6Zm1.2-16.9c.6,0,1.1,.2,1.5,.7,.4,.4,.6,1,.6,1.5s-.2,1.1-.6,1.5c-.4,.4-.9,.7-1.5,.7s-1.1-.2-1.5-.7c-.4-.4-.6-1-.6-1.5s.2-1.1,.6-1.5c.4-.4,.9-.7,1.5-.7Z"/><path class="b" d="M414.2,125.6c1.3,0,2.4,.2,3.5,.6,1.1,.4,2,.9,2.7,1.6,.8,.7,1.3,1.5,1.8,2.5,.4,1,.6,2.1,.6,3.3s-.2,2.3-.6,3.3-1,1.8-1.8,2.5c-.8,.7-1.7,1.2-2.7,1.6-1.1,.4-2.2,.6-3.5,.6s-2.4-.2-3.5-.6c-1.1-.4-2-.9-2.7-1.6-.8-.7-1.3-1.5-1.8-2.5-.4-1-.6-2.1-.6-3.3s.2-2.3,.6-3.3c.4-1,1-1.8,1.8-2.5s1.7-1.2,2.7-1.6c1.1-.4,2.2-.6,3.5-.6Zm-.7,1.2c-.7,0-1.4,.2-1.9,.6-.5,.4-1,.9-1.4,1.5-.4,.6-.6,1.3-.8,2-.2,.8-.3,1.5-.3,2.3s.1,1.7,.3,2.6,.6,1.6,1.1,2.3c.5,.7,1.1,1.3,1.8,1.7,.7,.4,1.6,.7,2.6,.7s1.4-.2,1.9-.6c.5-.4,1-.9,1.4-1.5,.4-.6,.6-1.3,.8-2,.2-.7,.3-1.5,.3-2.3s-.1-1.7-.4-2.5c-.2-.9-.6-1.7-1.1-2.4-.5-.7-1.1-1.3-1.8-1.7-.7-.4-1.6-.7-2.6-.7Z"/><path class="b" d="M425.2,126.8l5.8-.9v2.1c.7-.6,1.5-1.1,2.5-1.6,.9-.5,1.8-.8,2.7-.8s1.5,0,2.1,.3c.7,.2,1.3,.5,1.8,.9s1,1,1.3,1.7c.3,.7,.5,1.6,.5,2.7v7c0,.9,.2,1.5,.7,1.7,.5,.3,1.2,.5,2.1,.7v.5c-.8,0-1.6,0-2.5-.1-.9,0-1.8,0-2.7,0s-1.2,0-1.8,0c-.6,0-1.1,0-1.7,.1v-.5c.9-.2,1.5-.4,2-.7,.5-.3,.7-.9,.7-1.7v-6.4c0-1.4-.3-2.4-.9-3.2-.6-.7-1.5-1.1-2.8-1.1s-.9,0-1.4,.2c-.5,.1-.9,.3-1.3,.5-.4,.2-.7,.5-1,.7s-.4,.5-.4,.8v8.5c0,.9,.3,1.5,.8,1.7,.5,.3,1.3,.5,2.3,.7v.5c-.9,0-1.8,0-2.7-.1-.9,0-1.8,0-2.7,0s-1.2,0-1.8,0c-.6,0-1.2,0-1.8,.1v-.5c.9-.2,1.6-.4,2.1-.7,.5-.3,.7-.9,.7-1.7v-9.3c0-.8-.3-1.3-.8-1.5-.5-.2-1.2-.3-1.9-.3v-.5Z"/></g><g><path class="b" d="M167.9,200.1c.2-.8,.5-1.5,.9-2,.4-.5,.8-.9,1.3-1.1,.5-.3,1.1-.4,1.7-.5,.6,0,1.3,0,2,0s1.4,0,2.1,.2c.7,.1,1.3,.4,1.8,.7,.5,.3,1,.8,1.3,1.4,.3,.6,.5,1.3,.5,2.1v7.4c0,.5,.1,1,.4,1.3s.7,.6,1.2,.6,1-.2,1.4-.5c.4-.3,.8-.6,1.2-.9l.4,.4c-.3,.3-.6,.6-.9,.9s-.7,.7-1.1,1c-.4,.3-.8,.6-1.2,.8-.4,.2-.8,.3-1.2,.3s-.5,0-.8-.3c-.3-.2-.6-.4-.9-.6-.3-.2-.5-.5-.8-.8-.2-.3-.5-.5-.6-.7-.9,.6-1.8,1.1-2.9,1.6-1.1,.5-2.1,.7-3.1,.7s-1.1,0-1.6-.3c-.5-.2-1-.5-1.4-.8-.4-.3-.7-.8-1-1.2-.2-.5-.4-1-.4-1.6,0-1.1,.3-2,.9-2.6,.6-.7,1.4-1.2,2.4-1.5,1-.3,2.1-.6,3.3-.7,1.2-.1,2.5-.2,3.7-.2v-3c0-1-.3-1.7-.9-2.3-.6-.5-1.4-.8-2.3-.8s-1.2,.3-1.6,1-.6,1.5-.6,2.4l-3.3-.6Zm8.7,4.9c-.9-.2-1.8-.4-2.7-.4s-1,0-1.5,.2c-.5,.1-1,.3-1.4,.6-.4,.3-.7,.6-1,1-.3,.4-.4,.9-.4,1.5,0,.9,.3,1.6,.9,1.9,.6,.4,1.3,.6,2.1,.6s1.6-.2,2.3-.5,1.2-.6,1.5-.9v-4Z"/><path class="b" d="M184.1,198.3v-.6c.9,0,1.6-.2,2.2-.6,.6-.4,1.1-.9,1.6-1.5,.5-.6,.8-1.3,1.1-2,.3-.7,.6-1.5,.8-2.2h.6v5.8h5.5v1.2h-5.5v9.3c0,.3,0,.7,0,1s.1,.6,.2,.9c.1,.3,.3,.5,.5,.6,.2,.2,.5,.2,.9,.2,.8,0,1.5-.2,2-.5,.5-.3,1.1-.8,1.6-1.3l.4,.4c-.5,.4-.9,.8-1.3,1.2-.4,.4-.9,.8-1.3,1.1-.5,.3-1,.6-1.5,.8-.5,.2-1.1,.3-1.8,.3-1.1,0-1.9-.3-2.3-1s-.6-1.5-.6-2.4v-10.7h-3.2Z"/><path class="b" d="M231.3,185.6c1,0,1.9,0,2.9,.1,1,0,1.9,0,2.9,0s1.7,0,2.5,0c.8,0,1.7,0,2.5-.1v.5c-1.1,.2-2,.5-2.8,1-.7,.5-1.1,1.3-1.1,2.6s.1,1.8,.3,3.3c.2,1.5,.5,3.2,.8,4.9,.3,1.8,.6,3.6,1,5.4,.3,1.8,.6,3.3,.9,4.6,.1,.5,.3,1,.4,1.4,.2,.4,.4,.8,.7,1.1,.3,.3,.7,.6,1.2,.8,.5,.2,1.2,.4,2.1,.5v.5c-1.1,0-2.1,0-3.2-.1-1.1,0-2.1,0-3.2,0s-2,0-3,0c-1,0-2,0-3,.1v-.5c.6,0,1.1-.2,1.6-.3,.5-.1,1-.3,1.3-.5,.4-.2,.7-.6,.9-1s.3-1,.3-1.7,0-.7,0-1.3c0-.5-.1-1.1-.2-1.8l-2.8-16.1h0c-.7,1.9-1.5,3.8-2.4,5.7-.8,1.9-1.6,3.8-2.4,5.7-.8,1.9-1.6,3.8-2.3,5.7-.8,1.9-1.4,3.9-2.1,5.9h0c-1.3-4.1-2.7-8.1-4.3-11.9-1.6-3.8-3.3-7.7-5.2-11.5h0c-.2,1.5-.4,3.1-.6,4.9-.2,1.8-.4,3.5-.6,5.2-.2,1.7-.3,3.2-.4,4.6-.1,1.4-.2,2.4-.2,3.1s0,1.6,.2,2.3c.1,.6,.4,1.2,.7,1.6,.3,.4,.8,.7,1.4,1s1.4,.3,2.3,.4v.5c-1.1,0-2.2,0-3.3-.1-1.1,0-2.2,0-3.3,0s-1.6,0-2.5,0c-.8,0-1.6,0-2.5,.1v-.5c.6,0,1.1-.2,1.7-.3,.5-.2,1-.4,1.5-.7,.5-.3,.8-.6,1.1-1s.5-.8,.6-1.4c.2-.9,.3-1.9,.4-2.9,.1-1,.3-2,.4-3.1l1.9-14.2c-.6-.5-1.2-.8-2-1.1-.8-.3-1.5-.5-2.3-.6v-.5c1.1,0,2.3,0,3.4,.1,1.1,0,2.3,0,3.4,0s1.6,0,2.5,0c.8,0,1.6,0,2.5-.1v.5c-.5,.1-1,.4-1.4,.7-.4,.3-.6,.8-.6,1.5s0,.9,.2,1.3c.1,.4,.3,.9,.5,1.3l5.6,13.8c1.4-2.8,2.7-5.7,3.9-8.5s2.3-5.8,3.4-8.7c-.3-.3-.6-.6-1-.8-.4-.2-.8-.4-1.2-.5v-.5Z"/><path class="b" d="M247.6,200.1c.2-.8,.5-1.5,.9-2,.4-.5,.8-.9,1.3-1.1,.5-.3,1.1-.4,1.7-.5,.6,0,1.3,0,2,0s1.4,0,2.1,.2c.7,.1,1.3,.4,1.8,.7,.5,.3,1,.8,1.3,1.4,.3,.6,.5,1.3,.5,2.1v7.4c0,.5,.1,1,.4,1.3s.7,.6,1.2,.6,1-.2,1.4-.5c.4-.3,.8-.6,1.2-.9l.4,.4c-.3,.3-.6,.6-.9,.9s-.7,.7-1.1,1c-.4,.3-.8,.6-1.2,.8-.4,.2-.8,.3-1.2,.3s-.5,0-.8-.3c-.3-.2-.6-.4-.9-.6-.3-.2-.5-.5-.8-.8-.2-.3-.5-.5-.6-.7-.9,.6-1.8,1.1-2.9,1.6-1.1,.5-2.1,.7-3.1,.7s-1.1,0-1.6-.3c-.5-.2-1-.5-1.4-.8-.4-.3-.7-.8-1-1.2-.2-.5-.4-1-.4-1.6,0-1.1,.3-2,.9-2.6,.6-.7,1.4-1.2,2.4-1.5,1-.3,2.1-.6,3.3-.7,1.2-.1,2.5-.2,3.7-.2v-3c0-1-.3-1.7-.9-2.3-.6-.5-1.4-.8-2.3-.8s-1.2,.3-1.6,1-.6,1.5-.6,2.4l-3.3-.6Zm8.7,4.9c-.9-.2-1.8-.4-2.7-.4s-1,0-1.5,.2c-.5,.1-1,.3-1.4,.6-.4,.3-.7,.6-1,1-.3,.4-.4,.9-.4,1.5,0,.9,.3,1.6,.9,1.9,.6,.4,1.3,.6,2.1,.6s1.6-.2,2.3-.5,1.2-.6,1.5-.9v-4Z"/><path class="b" d="M262.9,196.9c.8,0,1.5,.1,2.2,.1,.7,0,1.4,0,2.3,0s1.6,0,2.4,0c.8,0,1.6,0,2.4-.1v.5c-.6,0-1.1,.2-1.7,.5-.5,.3-.8,.8-.8,1.4s.2,1.2,.5,2.1c.3,.9,.8,1.9,1.2,2.9,.5,1,.9,2.1,1.4,3.1,.5,1.1,.9,2.1,1.2,3,.1-.3,.3-.7,.6-1.3,.3-.6,.6-1.3,1-2.1,.4-.8,.7-1.6,1.1-2.5,.4-.9,.7-1.7,1-2.4,.3-.7,.6-1.4,.8-2,.2-.6,.3-.9,.3-1.1,0-.3,0-.6-.2-.8-.1-.2-.3-.3-.5-.5-.2-.1-.5-.2-.8-.3-.3,0-.6-.1-.8-.2v-.5c.6,0,1.2,.1,1.8,.1,.6,0,1.2,0,1.9,0s1.2,0,1.8,0c.6,0,1.2,0,1.8-.1v.5c-.7,.1-1.5,.6-2.2,1.4-.7,.8-1.4,1.7-2,2.8-.6,1-1.1,2.1-1.6,3.1-.5,1-.8,1.7-1,2.2-1.1,2.3-2.1,4.3-3,6-.9,1.7-1.7,3-2.5,4.1-.7,1.1-1.4,2-2,2.6-.6,.6-1.2,1.1-1.7,1.5-.5,.3-1.1,.5-1.6,.6-.5,0-1.1,.1-1.6,.1s-1,0-1.4-.2c-.5-.1-.9-.3-1.2-.6-.4-.3-.7-.6-.9-1.1-.2-.4-.3-.9-.3-1.5s.2-1,.6-1.4c.4-.4,.8-.6,1.4-.6s1.1,.2,1.5,.5c.4,.3,.6,.8,.6,1.4s-.1,.8-.3,1.1c-.2,.3-.3,.5-.3,.7s.2,.3,.6,.3c.4,0,.8,0,1.1,0,.8,0,1.6-.3,2.4-1,.8-.7,1.5-1.4,2.1-2.2,.6-.8,1.1-1.6,1.5-2.4,.4-.8,.6-1.2,.6-1.5s0-.4-.3-.8c-.2-.5-.4-1.1-.8-1.8-.3-.7-.7-1.6-1.1-2.5-.4-.9-.8-1.8-1.2-2.7s-.8-1.8-1.2-2.6c-.4-.8-.7-1.6-1-2.1-.3-.6-.5-1.1-.7-1.5-.2-.4-.4-.7-.7-.9-.3-.2-.6-.4-1-.5-.4-.1-.9-.3-1.5-.4v-.5Z"/><path class="b" d="M294.5,211.3l6-6.2c.8-.9,1.6-1.8,2.4-2.8s1.5-2,2.1-3.1c.6-1.1,1.1-2.2,1.5-3.4,.4-1.2,.6-2.4,.6-3.7s0-1.3-.2-2c-.2-.7-.4-1.3-.8-1.9-.4-.6-.8-1-1.4-1.4-.5-.4-1.2-.6-2-.6s-1.1,0-1.6,.2c-.5,.1-1,.3-1.4,.6s-.7,.6-1,1.1-.4,1-.4,1.7,0,.6,.2,.9c.1,.3,.3,.5,.5,.7,.2,.2,.4,.5,.5,.8,.1,.3,.2,.7,.2,1.1s-.2,1-.6,1.3c-.4,.3-.8,.4-1.4,.4s-.8,0-1.1-.3-.6-.5-.7-.8c-.2-.3-.3-.6-.4-1,0-.4-.1-.7-.1-1.1,0-1,.2-1.9,.6-2.7,.4-.8,.9-1.5,1.5-2.1,.6-.6,1.4-1.1,2.2-1.4,.9-.3,1.8-.5,2.7-.5,2.6,0,4.6,.7,6,2.1,1.4,1.4,2.1,3.4,2.1,5.9s-.5,3-1.4,4.5c-.9,1.5-2,2.9-3.3,4.2-1.3,1.4-2.7,2.6-4.1,3.9-1.4,1.2-2.6,2.3-3.5,3.3h7.2c.8,0,1.5,0,2-.1,.5,0,1-.2,1.3-.4s.8-.5,1.1-.9c.3-.4,.8-.9,1.2-1.6l.5,.4-2.8,5.6c-1,0-2,0-3-.1-1,0-2,0-3,0s-2.7,0-4,0c-1.3,0-2.7,0-4,.1l-.2-.6Z"/><path class="b" d="M332,204.9c0,1.3-.2,2.4-.7,3.3-.5,.9-1.1,1.7-2,2.3s-1.8,1.1-2.8,1.4c-1.1,.3-2.2,.5-3.3,.5s-2.2-.2-3.2-.5-2-.8-2.8-1.4c-.8-.6-1.4-1.4-1.9-2.3-.5-.9-.7-2-.7-3.1s.2-1.8,.5-2.5c.3-.8,.8-1.4,1.3-2.1,.5-.6,1.2-1.2,1.9-1.6,.7-.5,1.5-.9,2.3-1.2-.5-.3-1-.7-1.6-1.1s-1.1-.9-1.5-1.4c-.5-.5-.9-1.1-1.2-1.7s-.5-1.2-.5-1.9c0-1.1,.2-2,.7-2.8,.5-.8,1-1.5,1.8-2,.7-.5,1.5-.9,2.5-1.2,.9-.3,1.9-.4,2.8-.4s1.8,.1,2.7,.4c.9,.3,1.7,.7,2.4,1.2,.7,.5,1.3,1.1,1.7,1.9,.4,.8,.7,1.7,.7,2.6s-.1,1.5-.4,2.1c-.3,.6-.6,1.2-1,1.7-.4,.5-.9,.9-1.5,1.3s-1.2,.7-1.9,1c.6,.5,1.3,.9,1.9,1.5,.7,.5,1.3,1.1,1.9,1.7,.6,.6,1,1.3,1.4,2,.4,.7,.6,1.5,.6,2.4Zm-2.9,1.6c0-1-.3-2-.8-2.7-.5-.8-1.2-1.5-2-2.1-.8-.6-1.6-1.2-2.5-1.8-.9-.5-1.7-1.1-2.4-1.7-1.2,.5-2.1,1.3-2.8,2.4-.7,1.1-1,2.2-1,3.5s.1,1.9,.4,2.8c.3,.9,.7,1.6,1.2,2.3,.5,.7,1.2,1.2,1.9,1.6,.7,.4,1.6,.6,2.6,.6s1.4-.1,2.1-.3c.7-.2,1.2-.5,1.7-.9,.5-.4,.9-.9,1.2-1.5,.3-.6,.4-1.3,.4-2.1Zm-1-14.9c0-1.5-.5-2.8-1.4-3.8-.9-1-2.2-1.4-3.7-1.4s-2.2,.4-3,1.1c-.8,.8-1.2,1.7-1.2,2.9s.2,1.4,.7,2c.5,.6,1,1.2,1.7,1.7,.7,.5,1.4,1,2.1,1.5,.7,.4,1.4,.8,1.9,1.2,1-.7,1.7-1.4,2.2-2.2,.4-.8,.6-1.8,.6-3Z"/><path class="b" d="M334.5,216.1c.3-.2,.6-.4,.9-.7s.6-.6,.8-1c.2-.4,.4-.7,.6-1.1s.2-.8,.2-1.1,0-.7-.1-1-.2-.6-.2-.8-.2-.5-.2-.8c0-.2-.1-.5-.1-.8,0-.6,.2-1.1,.6-1.4,.4-.3,.9-.5,1.4-.5s1.2,.2,1.5,.7c.3,.5,.4,1.1,.4,2s-.2,1.6-.5,2.3c-.3,.7-.7,1.3-1.2,1.9-.5,.6-1.1,1.1-1.7,1.5s-1.3,.9-1.9,1.3l-.4-.4Z"/><path class="b" d="M354.5,211.3l6-6.2c.8-.9,1.6-1.8,2.4-2.8s1.5-2,2.1-3.1c.6-1.1,1.1-2.2,1.5-3.4,.4-1.2,.6-2.4,.6-3.7s0-1.3-.2-2c-.2-.7-.4-1.3-.8-1.9-.4-.6-.8-1-1.4-1.4-.5-.4-1.2-.6-2-.6s-1.1,0-1.6,.2c-.5,.1-1,.3-1.4,.6-.4,.3-.7,.6-1,1.1-.3,.5-.4,1-.4,1.7s0,.6,.2,.9c.1,.3,.3,.5,.5,.7,.2,.2,.4,.5,.5,.8,.1,.3,.2,.7,.2,1.1s-.2,1-.6,1.3c-.4,.3-.8,.4-1.4,.4s-.8,0-1.1-.3-.6-.5-.7-.8c-.2-.3-.3-.6-.4-1,0-.4-.1-.7-.1-1.1,0-1,.2-1.9,.6-2.7,.4-.8,.9-1.5,1.5-2.1,.6-.6,1.4-1.1,2.2-1.4,.9-.3,1.8-.5,2.7-.5,2.6,0,4.6,.7,6,2.1,1.4,1.4,2.1,3.4,2.1,5.9s-.5,3-1.4,4.5c-.9,1.5-2,2.9-3.3,4.2-1.3,1.4-2.7,2.6-4.1,3.9-1.4,1.2-2.6,2.3-3.5,3.3h7.2c.8,0,1.5,0,2-.1,.5,0,1-.2,1.3-.4s.8-.5,1.1-.9c.3-.4,.8-.9,1.2-1.6l.5,.4-2.8,5.6c-1,0-2,0-3-.1-1,0-2,0-3,0s-2.7,0-4,0c-1.3,0-2.7,0-4,.1l-.2-.6Z"/><path class="b" d="M383.9,185.1c1,0,2,.2,3,.7,1,.5,1.9,1.3,2.6,2.3s1.4,2.5,1.9,4.2c.5,1.7,.7,3.9,.7,6.4s-.2,4.6-.7,6.4c-.5,1.7-1.1,3.1-1.9,4.2s-1.7,1.9-2.6,2.3c-1,.5-2,.7-3,.7s-2-.2-3-.7c-1-.5-1.8-1.3-2.6-2.3s-1.4-2.5-1.9-4.2c-.5-1.7-.7-3.9-.7-6.4s.2-4.6,.7-6.4c.5-1.7,1.1-3.1,1.9-4.2s1.6-1.9,2.6-2.3c1-.5,2-.7,3-.7Zm0,1.2c-.8,0-1.5,.3-2.1,.9-.6,.6-1.1,1.4-1.5,2.5-.4,1.1-.7,2.4-.9,3.9s-.3,3.2-.3,5.1,0,3.6,.3,5.2c.2,1.5,.5,2.9,.9,3.9,.4,1.1,.9,1.9,1.5,2.5,.6,.6,1.3,.9,2.1,.9s1.5-.3,2.1-.9c.6-.6,1.1-1.4,1.4-2.5,.4-1.1,.7-2.4,.9-3.9,.2-1.5,.3-3.3,.3-5.2s0-3.6-.3-5.1-.5-2.8-.9-3.9c-.4-1.1-.9-1.9-1.4-2.5-.6-.6-1.3-.9-2.1-.9Z"/><path class="b" d="M394.5,211.3l6-6.2c.8-.9,1.6-1.8,2.4-2.8s1.5-2,2.1-3.1c.6-1.1,1.1-2.2,1.5-3.4,.4-1.2,.6-2.4,.6-3.7s0-1.3-.2-2c-.2-.7-.4-1.3-.8-1.9-.4-.6-.8-1-1.4-1.4-.5-.4-1.2-.6-2-.6s-1.1,0-1.6,.2c-.5,.1-1,.3-1.4,.6-.4,.3-.7,.6-1,1.1-.3,.5-.4,1-.4,1.7s0,.6,.2,.9c.1,.3,.3,.5,.5,.7,.2,.2,.4,.5,.5,.8,.1,.3,.2,.7,.2,1.1s-.2,1-.6,1.3c-.4,.3-.8,.4-1.4,.4s-.8,0-1.1-.3-.6-.5-.7-.8c-.2-.3-.3-.6-.4-1,0-.4-.1-.7-.1-1.1,0-1,.2-1.9,.6-2.7,.4-.8,.9-1.5,1.5-2.1,.6-.6,1.4-1.1,2.2-1.4,.9-.3,1.8-.5,2.7-.5,2.6,0,4.6,.7,6,2.1,1.4,1.4,2.1,3.4,2.1,5.9s-.5,3-1.4,4.5c-.9,1.5-2,2.9-3.3,4.2-1.3,1.4-2.7,2.6-4.1,3.9-1.4,1.2-2.6,2.3-3.5,3.3h7.2c.8,0,1.5,0,2-.1,.5,0,1-.2,1.3-.4s.8-.5,1.1-.9c.3-.4,.8-.9,1.2-1.6l.5,.4-2.8,5.6c-1,0-2,0-3-.1-1,0-2,0-3,0s-2.7,0-4,0c-1.3,0-2.7,0-4,.1l-.2-.6Z"/><path class="b" d="M414.5,211.3l6-6.2c.8-.9,1.6-1.8,2.4-2.8s1.5-2,2.1-3.1c.6-1.1,1.1-2.2,1.5-3.4,.4-1.2,.6-2.4,.6-3.7s0-1.3-.2-2c-.2-.7-.4-1.3-.8-1.9-.4-.6-.8-1-1.4-1.4-.5-.4-1.2-.6-2-.6s-1.1,0-1.6,.2c-.5,.1-1,.3-1.4,.6-.4,.3-.7,.6-1,1.1-.3,.5-.4,1-.4,1.7s0,.6,.2,.9c.1,.3,.3,.5,.5,.7,.2,.2,.4,.5,.5,.8,.1,.3,.2,.7,.2,1.1s-.2,1-.6,1.3c-.4,.3-.8,.4-1.4,.4s-.8,0-1.1-.3c-.3-.2-.6-.5-.7-.8s-.3-.6-.4-1c0-.4-.1-.7-.1-1.1,0-1,.2-1.9,.6-2.7,.4-.8,.9-1.5,1.5-2.1,.6-.6,1.4-1.1,2.2-1.4,.9-.3,1.8-.5,2.7-.5,2.6,0,4.6,.7,6,2.1,1.4,1.4,2.1,3.4,2.1,5.9s-.5,3-1.4,4.5c-.9,1.5-2,2.9-3.3,4.2-1.3,1.4-2.7,2.6-4.1,3.9-1.4,1.2-2.6,2.3-3.5,3.3h7.2c.8,0,1.5,0,2-.1,.5,0,1-.2,1.3-.4,.4-.2,.8-.5,1.1-.9,.3-.4,.8-.9,1.2-1.6l.5,.4-2.8,5.6c-1,0-2,0-3-.1-1,0-2,0-3,0s-2.7,0-4,0c-1.3,0-2.7,0-4,.1l-.2-.6Z"/></g></svg>